<svg xmlns="http://www.w3.org/2000/svg" viewBox="0 0 480 854" role="img" aria-labelledby="title" data-coordinate-system="shadow-loom-stage-480x854"><title id="title">Whale — target</title><path fill="currentColor" fill-rule="evenodd" clip-rule="evenodd" d="M 132 314 C 148 287 178 268 214 266 C 250 263 282 277 305 304 C 316 317 327 318 340 303 C 347 295 353 294 357 298 C 352 306 351 313 360 319 C 351 329 337 333 321 327 C 299 351 266 363 229 360 C 191 357 157 343 132 314 Z M 174 297 C 177 292 185 292 188 297 C 185 302 177 302 174 297 Z M 339 302 C 350 286 360 266 376 248 C 385 238 395 235 402 241 C 396 251 389 259 379 266 C 391 264 405 266 414 273 C 408 282 398 286 387 286 C 398 291 408 299 413 308 C 402 313 389 307 378 300 C 371 310 362 318 350 321 Z M 374 278 C 383 273 393 273 400 278 C 392 284 383 285 375 284 Z M 191 350 C 172 358 151 374 140 397 C 136 406 139 416 148 416 C 169 408 190 387 204 361 C 201 355 197 352 191 350 Z M 153 397 C 147 401 144 407 145 411 C 151 409 157 405 161 400 Z"/></svg>
