<svg xmlns="http://www.w3.org/2000/svg" viewBox="0 0 480 854" role="img" aria-labelledby="title" data-coordinate-system="shadow-loom-stage-480x854"><title id="title">koi body — natural split of the traced swimming koi</title><path fill="currentColor" fill-rule="evenodd" clip-rule="evenodd" d="M 271.25 179.75 C 273.08 179.75 276.33 179.94 278.25 180.08 C 280.17 180.22 281.33 180.35 282.75 180.58 C 284.17 180.81 285.97 181.19 286.75 181.46 C 287.53 181.74 287.36 181.95 287.42 182.25 C 287.47 182.55 287.11 183.00 287.08 183.25 C 287.06 183.50 287.12 183.58 287.25 183.75 C 287.38 183.92 286.46 183.77 287.88 184.25 C 289.29 184.73 294.32 186.15 295.75 186.65 C 297.18 187.15 296.45 186.90 296.48 187.25 C 296.52 187.60 296.25 188.29 295.96 188.75 C 295.68 189.21 295.54 189.83 294.75 190.00 C 293.96 190.17 291.94 189.71 291.25 189.75 C 290.56 189.79 290.48 189.75 290.61 190.25 C 290.75 190.75 291.59 192.08 292.06 192.75 C 292.52 193.42 292.55 193.80 293.42 194.25 C 294.28 194.70 295.86 195.19 297.25 195.46 C 298.64 195.74 300.89 195.92 301.75 195.89 C 302.61 195.85 302.38 195.94 302.42 195.25 C 302.46 194.56 302.03 192.38 302.00 191.75 C 301.97 191.12 301.96 191.35 302.25 191.48 C 302.54 191.62 302.77 191.66 303.75 192.54 C 304.73 193.42 307.19 195.72 308.15 196.75 C 309.11 197.78 309.22 197.50 309.48 198.75 C 309.75 200.00 309.77 202.67 309.75 204.25 C 309.73 205.83 309.61 206.75 309.39 208.25 C 309.16 209.75 308.77 211.92 308.42 213.25 C 308.06 214.58 307.78 215.38 307.25 216.25 C 306.72 217.13 306.08 217.81 305.25 218.50 C 304.42 219.19 303.00 220.05 302.25 220.42 C 301.50 220.78 301.42 220.72 300.75 220.69 C 300.08 220.67 298.75 220.28 298.25 220.25 C 297.75 220.22 297.88 220.36 297.75 220.52 C 297.63 220.69 297.54 220.71 297.50 221.25 C 297.46 221.79 297.69 223.15 297.48 223.75 C 297.28 224.35 297.37 224.40 296.25 224.85 C 295.13 225.30 292.33 226.15 290.75 226.46 C 289.17 226.78 287.83 226.75 286.75 226.75 C 285.67 226.75 285.42 226.75 284.25 226.44 C 283.08 226.14 283.08 226.57 279.75 224.92 C 276.42 223.27 267.08 218.02 264.25 216.54 C 261.42 215.05 263.10 216.05 262.75 216.00 C 262.40 215.95 262.25 216.04 262.15 216.25 C 262.05 216.46 261.97 216.77 262.15 217.25 C 262.33 217.73 261.65 217.67 263.25 219.15 C 264.85 220.63 270.08 224.72 271.75 226.15 C 273.42 227.58 272.87 227.23 273.25 227.75 C 273.63 228.27 273.87 228.50 274.02 229.25 C 274.16 230.00 273.99 231.53 274.11 232.25 C 274.24 232.97 274.39 233.16 274.75 233.60 C 275.11 234.04 275.50 234.41 276.25 234.92 C 277.00 235.42 278.55 236.18 279.25 236.65 C 279.95 237.12 280.16 237.40 280.44 237.75 C 280.72 238.10 280.74 237.83 280.94 238.75 C 281.14 239.67 280.49 241.42 281.65 243.25 C 282.81 245.08 286.83 248.42 287.89 249.75 C 288.94 251.08 288.05 250.75 288.00 251.25 C 287.95 251.75 287.63 252.33 287.58 252.75 C 287.53 253.17 287.33 253.52 287.69 253.75 C 288.06 253.98 289.22 253.78 289.75 254.11 C 290.28 254.45 290.30 253.98 290.85 255.75 C 291.40 257.52 292.44 262.75 293.06 264.75 C 293.67 266.75 294.09 267.02 294.54 267.75 C 294.99 268.48 295.13 268.55 295.75 269.15 C 296.37 269.75 297.33 270.64 298.25 271.35 C 299.17 272.06 299.67 272.46 301.25 273.39 C 302.83 274.31 306.25 276.20 307.75 276.89 C 309.25 277.57 309.42 277.50 310.25 277.50 C 311.08 277.50 312.17 276.98 312.75 276.89 C 313.33 276.80 313.38 276.74 313.75 276.96 C 314.12 277.19 314.50 277.54 314.98 278.25 C 315.46 278.96 316.07 280.64 316.61 281.25 C 317.16 281.86 317.76 281.92 318.25 281.92 C 318.74 281.92 319.29 281.53 319.54 281.25 C 319.79 280.97 319.73 280.92 319.75 280.25 C 319.77 279.58 319.73 277.84 319.65 277.25 C 319.57 276.66 319.48 276.86 319.25 276.69 C 319.02 276.53 318.33 276.37 318.25 276.25 C 318.17 276.13 317.58 275.83 318.75 275.95 C 319.92 276.07 324.10 276.64 325.25 276.94 C 326.40 277.24 325.62 277.28 325.65 277.75 C 325.68 278.22 325.26 279.36 325.44 279.75 C 325.63 280.14 326.37 280.03 326.75 280.08 C 327.13 280.14 327.50 280.14 327.75 280.08 C 328.00 280.03 328.18 280.97 328.25 279.75 C 328.32 278.53 328.03 274.04 328.19 272.75 C 328.36 271.46 328.57 272.15 329.25 271.98 C 329.93 271.82 331.50 271.86 332.25 271.75 C 333.00 271.64 332.97 271.85 333.75 271.35 C 334.53 270.85 336.20 269.60 336.96 268.75 C 337.72 267.90 338.06 267.50 338.31 266.25 C 338.55 265.00 338.48 262.58 338.42 261.25 C 338.35 259.92 338.24 259.33 337.92 258.25 C 337.59 257.17 336.93 255.53 336.48 254.75 C 336.04 253.97 335.62 253.83 335.25 253.56 C 334.88 253.28 334.92 253.29 334.25 253.11 C 333.58 252.94 332.50 252.61 331.25 252.52 C 330.00 252.43 328.17 252.41 326.75 252.58 C 325.33 252.76 323.62 253.22 322.75 253.58 C 321.88 253.94 321.80 254.39 321.52 254.75 C 321.24 255.11 321.19 254.83 321.06 255.75 C 320.93 256.67 320.75 259.08 320.75 260.25 C 320.75 261.42 320.92 262.22 321.08 262.75 C 321.25 263.28 321.39 263.25 321.75 263.42 C 322.11 263.58 323.75 263.64 323.25 263.75 C 322.75 263.86 319.89 264.08 318.75 264.08 C 317.61 264.08 316.99 263.97 316.39 263.75 C 315.79 263.53 315.46 263.08 315.15 262.75 C 314.84 262.42 314.81 262.50 314.54 261.75 C 314.26 261.00 313.69 259.50 313.50 258.25 C 313.31 257.00 313.32 255.42 313.42 254.25 C 313.51 253.08 313.76 252.17 314.06 251.25 C 314.35 250.33 314.85 249.42 315.19 248.75 C 315.54 248.08 315.60 247.88 316.11 247.25 C 316.62 246.62 317.06 245.91 318.25 244.96 C 319.44 244.01 321.75 242.43 323.25 241.54 C 324.75 240.64 326.08 240.07 327.25 239.58 C 328.42 239.10 329.17 238.78 330.25 238.61 C 331.33 238.45 332.50 238.37 333.75 238.61 C 335.00 238.86 336.42 239.51 337.75 240.08 C 339.08 240.66 340.67 241.37 341.75 242.08 C 342.83 242.79 343.57 243.57 344.25 244.35 C 344.93 245.13 345.36 245.77 345.81 246.75 C 346.25 247.73 346.59 248.83 346.94 250.25 C 347.29 251.67 347.67 253.67 347.92 255.25 C 348.16 256.83 348.32 257.58 348.42 259.75 C 348.51 261.92 348.65 266.25 348.48 268.25 C 348.32 270.25 347.95 270.75 347.44 271.75 C 346.94 272.75 346.99 272.63 345.46 274.25 C 343.93 275.87 339.87 279.94 338.25 281.46 C 336.63 282.98 336.83 282.72 335.75 283.39 C 334.67 284.05 333.08 284.96 331.75 285.46 C 330.42 285.97 329.75 286.23 327.75 286.42 C 325.75 286.60 321.58 286.58 319.75 286.58 C 317.92 286.58 318.17 286.62 316.75 286.42 C 315.33 286.21 312.51 285.79 311.25 285.35 C 309.99 284.91 309.94 284.64 309.19 283.75 C 308.44 282.86 307.91 281.20 306.75 280.02 C 305.59 278.84 303.18 277.19 302.25 276.65 C 301.32 276.11 301.44 276.57 301.19 276.75 C 300.94 276.93 300.77 277.08 300.75 277.75 C 300.73 278.42 300.31 277.08 301.08 280.75 C 301.86 284.42 304.58 295.92 305.42 299.75 C 306.25 303.58 306.56 302.50 306.08 303.75 C 305.61 305.00 304.69 304.25 302.58 307.25 C 300.48 310.25 295.41 318.82 293.44 321.75 C 291.47 324.68 291.29 324.39 290.75 324.81 C 290.21 325.22 290.42 324.68 290.19 324.25 C 289.97 323.82 289.66 322.66 289.42 322.25 C 289.18 321.84 289.19 321.84 288.75 321.81 C 288.31 321.77 287.34 321.88 286.75 322.04 C 286.16 322.19 285.55 322.38 285.19 322.75 C 284.84 323.12 284.72 323.67 284.61 324.25 C 284.51 324.83 284.44 324.58 284.58 326.25 C 284.73 327.92 285.47 332.74 285.50 334.25 C 285.53 335.76 285.21 334.94 284.75 335.31 C 284.29 335.67 283.30 337.22 282.75 336.46 C 282.20 335.71 281.78 331.79 281.44 330.75 C 281.11 329.71 281.03 330.32 280.75 330.19 C 280.47 330.07 280.04 330.17 279.75 330.02 C 279.46 329.86 279.14 329.63 279.02 329.25 C 278.89 328.87 278.89 328.67 279.02 327.75 C 279.14 326.83 279.68 324.75 279.75 323.75 C 279.82 322.75 279.60 322.33 279.46 321.75 C 279.33 321.17 279.58 321.67 278.92 320.25 C 278.25 318.83 276.71 315.58 275.46 313.25 C 274.21 310.92 272.52 308.00 271.42 306.25 C 270.31 304.50 269.46 303.50 268.85 302.75 C 268.24 302.00 268.02 301.92 267.75 301.75 C 267.48 301.58 267.37 301.67 267.25 301.75 C 267.13 301.83 267.13 301.67 267.02 302.25 C 266.91 302.83 266.77 302.42 266.58 305.25 C 266.40 308.08 266.27 315.92 265.92 319.25 C 265.56 322.58 264.80 323.98 264.44 325.25 C 264.08 326.52 263.95 326.56 263.75 326.86 C 263.55 327.16 263.37 327.08 263.25 327.06 C 263.13 327.04 263.09 327.47 263.06 326.75 C 263.03 326.03 262.84 327.08 263.08 322.75 C 263.32 318.42 264.26 305.00 264.50 300.75 C 264.74 296.50 264.63 298.14 264.50 297.25 C 264.38 296.36 264.04 295.77 263.75 295.40 C 263.46 295.02 263.42 294.89 262.75 295.00 C 262.08 295.11 260.43 295.96 259.75 296.08 C 259.07 296.21 259.00 296.14 258.65 295.75 C 258.30 295.36 258.11 295.17 257.65 293.75 C 257.19 292.33 256.40 288.52 255.92 287.25 C 255.43 285.98 255.03 286.34 254.75 286.15 C 254.47 285.96 254.50 286.01 254.25 286.08 C 254.00 286.16 253.52 286.31 253.25 286.58 C 252.98 286.86 252.86 286.56 252.61 287.75 C 252.36 288.94 252.00 292.92 251.75 293.75 C 251.50 294.58 251.34 294.17 251.11 292.75 C 250.89 291.33 250.63 287.00 250.42 285.25 C 250.21 283.50 250.04 282.95 249.85 282.25 C 249.66 281.55 249.77 281.51 249.25 281.07 C 248.73 280.63 248.17 280.30 246.75 279.61 C 245.33 278.93 242.08 277.60 240.75 276.96 C 239.42 276.33 239.35 276.26 238.75 275.81 C 238.15 275.35 237.71 275.01 237.15 274.25 C 236.59 273.49 235.93 272.00 235.42 271.25 C 234.90 270.50 234.49 270.11 234.05 269.75 C 233.61 269.39 233.72 269.33 232.75 269.08 C 231.78 268.83 229.02 268.47 228.25 268.25 C 227.48 268.03 228.06 267.92 228.11 267.75 C 228.16 267.58 228.53 267.47 228.56 267.25 C 228.58 267.03 229.26 267.21 228.25 266.46 C 227.24 265.71 223.28 264.03 222.52 262.75 C 221.76 261.47 223.41 259.50 223.69 258.75 C 223.98 258.00 223.57 258.06 224.25 258.25 C 224.93 258.44 226.58 259.46 227.75 259.92 C 228.92 260.38 230.50 260.93 231.25 261.00 C 232.00 261.07 231.96 260.65 232.25 260.36 C 232.54 260.07 232.69 259.94 232.96 259.25 C 233.24 258.56 233.76 257.17 233.92 256.25 C 234.08 255.33 234.24 255.08 233.92 253.75 C 233.60 252.42 232.66 249.75 232.00 248.25 C 231.34 246.75 230.69 245.70 229.98 244.75 C 229.27 243.80 228.25 242.98 227.75 242.56 C 227.25 242.15 227.00 242.33 227.00 242.25 C 227.00 242.17 227.38 242.03 227.75 242.06 C 228.13 242.09 228.83 242.43 229.25 242.42 C 229.67 242.41 229.97 242.19 230.25 242.00 C 230.53 241.81 230.73 241.71 230.92 241.25 C 231.11 240.79 231.29 242.33 231.39 239.25 C 231.48 236.17 231.52 226.67 231.50 222.75 C 231.48 218.83 231.33 217.17 231.25 215.75 C 231.17 214.33 231.17 214.58 231.00 214.25 C 230.83 213.92 230.96 213.70 230.25 213.75 C 229.54 213.80 227.45 214.54 226.75 214.54 C 226.05 214.54 226.35 214.30 226.04 213.75 C 225.73 213.20 225.27 211.86 224.89 211.25 C 224.51 210.64 224.94 210.88 223.75 210.11 C 222.56 209.35 219.17 207.35 217.75 206.65 C 216.33 205.95 215.83 205.98 215.25 205.92 C 214.67 205.85 214.44 206.36 214.25 206.25 C 214.06 206.14 214.11 205.92 214.08 205.25 C 214.06 204.58 213.98 203.25 214.08 202.25 C 214.19 201.25 214.50 199.92 214.69 199.25 C 214.89 198.58 215.18 199.58 215.25 198.25 C 215.32 196.92 214.92 193.42 215.11 191.25 C 215.31 189.08 216.14 186.27 216.42 185.25 C 216.69 184.23 214.36 184.17 216.75 185.15 C 219.14 186.13 228.17 189.97 230.75 191.15 C 233.33 192.33 231.96 191.98 232.25 192.25 C 232.54 192.52 232.50 192.50 232.52 192.75 C 232.53 193.00 232.44 193.50 232.35 193.75 C 232.26 194.00 231.98 194.14 231.96 194.25 C 231.95 194.36 228.79 196.10 232.25 194.42 C 235.71 192.73 249.00 185.96 252.75 184.15 C 256.50 182.34 254.08 183.69 254.75 183.58 C 255.42 183.48 255.92 183.40 256.75 183.50 C 257.58 183.60 259.08 184.14 259.75 184.19 C 260.42 184.25 260.35 184.26 260.75 183.85 C 261.15 183.44 261.73 182.20 262.15 181.75 C 262.57 181.30 262.40 181.43 263.25 181.15 C 264.10 180.87 265.92 180.32 267.25 180.08 C 268.58 179.85 269.42 179.75 271.25 179.75 Z M 249.75 150.75 C 251.42 150.75 255.08 150.97 256.75 151.11 C 258.42 151.26 259.00 151.45 259.75 151.61 C 260.50 151.78 260.67 151.79 261.25 152.08 C 261.83 152.37 262.71 152.91 263.25 153.35 C 263.79 153.79 264.15 154.27 264.48 154.75 C 264.81 155.23 264.93 155.42 265.25 156.25 C 265.57 157.08 266.18 158.50 266.39 159.75 C 266.59 161.00 266.55 162.83 266.48 163.75 C 266.42 164.67 266.19 164.88 265.98 165.25 C 265.78 165.62 265.79 165.67 265.25 165.96 C 264.71 166.25 263.42 166.80 262.75 166.98 C 262.08 167.17 261.68 167.12 261.25 167.08 C 260.82 167.04 260.38 166.97 260.19 166.75 C 260.01 166.53 259.92 166.92 260.15 165.75 C 260.38 164.58 261.47 161.17 261.58 159.75 C 261.69 158.33 261.11 157.87 260.81 157.25 C 260.50 156.63 260.09 156.35 259.75 156.06 C 259.41 155.77 259.17 155.68 258.75 155.52 C 258.33 155.35 258.50 155.16 257.25 155.08 C 256.00 155.01 253.58 154.91 251.25 155.08 C 248.92 155.26 245.17 155.78 243.25 156.11 C 241.33 156.45 240.77 156.64 239.75 157.08 C 238.73 157.52 237.94 157.97 237.15 158.75 C 236.36 159.53 235.49 160.58 235.04 161.75 C 234.58 162.92 234.61 164.92 234.44 165.75 C 234.27 166.58 234.80 165.92 234.00 166.75 C 233.20 167.58 230.24 170.00 229.61 170.75 C 228.99 171.50 229.73 171.14 230.25 171.25 C 230.77 171.36 231.42 171.44 232.75 171.42 C 234.08 171.39 237.28 171.19 238.25 171.08 C 239.22 170.97 238.55 171.14 238.56 170.75 C 238.57 170.36 238.27 169.19 238.31 168.75 C 238.34 168.31 238.01 168.22 238.75 168.08 C 239.49 167.94 241.86 167.89 242.75 167.92 C 243.64 167.94 243.83 168.11 244.10 168.25 C 244.37 168.39 244.32 168.33 244.39 168.75 C 244.45 169.17 244.53 169.67 244.50 170.75 C 244.47 171.83 244.32 174.44 244.19 175.25 C 244.07 176.06 244.16 175.56 243.75 175.58 C 243.34 175.61 242.15 175.39 241.75 175.42 C 241.35 175.44 241.23 175.03 241.35 175.75 C 241.47 176.47 242.27 178.83 242.48 179.75 C 242.69 180.67 242.81 180.94 242.60 181.25 C 242.39 181.56 241.89 181.56 241.25 181.58 C 240.61 181.61 239.33 181.49 238.75 181.39 C 238.17 181.28 238.75 181.67 237.75 180.94 C 236.75 180.22 234.17 177.93 232.75 177.04 C 231.33 176.14 230.75 175.84 229.25 175.58 C 227.75 175.33 226.08 175.31 223.75 175.50 C 221.42 175.69 216.74 176.63 215.25 176.75 C 213.76 176.88 215.01 176.75 214.81 176.25 C 214.60 175.75 214.13 174.22 214.04 173.75 C 213.94 173.28 213.63 173.72 214.25 173.42 C 214.87 173.12 216.25 173.01 217.75 171.94 C 219.25 170.88 222.00 167.94 223.25 167.04 C 224.50 166.13 224.17 166.44 225.25 166.50 C 226.33 166.56 228.78 167.38 229.75 167.42 C 230.72 167.46 230.81 167.53 231.06 166.75 C 231.31 165.97 231.26 164.33 231.25 162.75 C 231.24 161.17 231.00 158.31 231.00 157.25 C 231.00 156.19 231.04 156.74 231.25 156.39 C 231.46 156.04 231.75 155.52 232.25 155.15 C 232.75 154.78 233.42 154.41 234.25 154.15 C 235.08 153.89 235.67 153.46 237.25 153.61 C 238.83 153.77 242.56 154.89 243.75 155.08 C 244.94 155.27 244.37 155.14 244.42 154.75 C 244.46 154.36 244.04 153.17 244.02 152.75 C 243.99 152.33 243.79 152.52 244.25 152.25 C 244.71 151.98 245.83 151.36 246.75 151.11 C 247.67 150.86 248.08 150.75 249.75 150.75 Z M 213.94 212.75 C 214.22 212.26 214.10 212.22 214.25 212.31 C 214.40 212.39 214.31 212.18 214.85 213.25 C 215.39 214.32 216.87 217.33 217.46 218.75 C 218.06 220.17 218.28 220.92 218.44 221.75 C 218.61 222.58 218.53 223.25 218.46 223.75 C 218.39 224.25 218.14 224.54 218.02 224.75 C 217.90 224.96 218.13 224.91 217.75 225.02 C 217.37 225.13 216.19 225.21 215.75 225.42 C 215.31 225.62 215.22 225.69 215.11 226.25 C 215.01 226.81 215.04 227.83 215.11 228.75 C 215.19 229.67 215.32 230.75 215.56 231.75 C 215.79 232.75 216.21 234.00 216.54 234.75 C 216.87 235.50 217.17 235.82 217.54 236.25 C 217.91 236.68 217.80 236.74 218.75 237.31 C 219.70 237.87 221.92 238.89 223.25 239.61 C 224.58 240.34 226.17 241.27 226.75 241.65 C 227.33 242.03 227.25 241.96 226.75 241.92 C 226.25 241.88 224.50 241.47 223.75 241.42 C 223.00 241.36 222.83 241.39 222.25 241.58 C 221.67 241.78 220.92 242.17 220.25 242.58 C 219.58 243.00 218.86 244.06 218.25 244.08 C 217.64 244.11 216.90 243.56 216.58 242.75 C 216.27 241.94 216.56 240.42 216.35 239.25 C 216.14 238.08 215.76 236.92 215.35 235.75 C 214.94 234.58 214.27 232.89 213.92 232.25 C 213.57 231.61 213.61 231.87 213.25 231.92 C 212.89 231.97 212.34 232.84 211.75 232.56 C 211.16 232.28 209.99 230.72 209.69 230.25 C 209.40 229.78 209.87 230.67 210.00 229.75 C 210.13 228.83 210.24 226.58 210.50 224.75 C 210.76 222.92 211.23 220.33 211.58 218.75 C 211.94 217.17 212.22 216.25 212.61 215.25 C 213.01 214.25 213.67 213.24 213.94 212.75 Z M 233.75 261.04 C 233.47 261.23 232.72 262.01 232.56 262.25 C 232.39 262.49 232.13 262.23 232.75 262.48 C 233.37 262.73 235.63 263.62 236.25 263.75 C 236.87 263.88 236.79 263.69 236.46 263.25 C 236.13 262.81 234.70 261.48 234.25 261.11 C 233.80 260.74 234.03 260.85 233.75 261.04 Z M 237.75 264.19 C 237.57 264.33 237.28 264.57 237.15 264.75 C 237.02 264.93 236.96 265.13 236.98 265.25 C 237.00 265.38 236.79 265.30 237.25 265.50 C 237.71 265.70 239.17 266.27 239.75 266.44 C 240.33 266.62 240.56 266.58 240.75 266.55 C 240.94 266.52 241.22 266.65 240.89 266.25 C 240.55 265.85 239.19 264.53 238.75 264.15 C 238.31 263.77 238.42 263.93 238.25 263.94 C 238.08 263.95 237.93 264.06 237.75 264.19 Z M 288.25 297.08 C 288.08 297.12 287.84 297.16 287.75 297.35 C 287.66 297.54 287.78 298.02 287.69 298.25 C 287.61 298.48 287.49 298.67 287.25 298.75 C 287.01 298.83 286.42 298.55 286.25 298.75 C 286.08 298.95 286.17 299.72 286.25 299.97 C 286.33 300.22 286.33 300.20 286.75 300.25 C 287.17 300.30 288.36 300.33 288.75 300.25 C 289.14 300.17 289.00 300.17 289.08 299.75 C 289.17 299.33 289.31 298.19 289.25 297.75 C 289.19 297.31 288.92 297.22 288.75 297.11 C 288.58 297.00 288.42 297.04 288.25 297.08 Z M 216.75 194.55 C 216.44 194.05 216.33 194.88 216.11 195.25 C 215.90 195.62 215.59 196.25 215.45 196.75 C 215.31 197.25 215.20 197.89 215.25 198.25 C 215.30 198.61 215.33 198.82 215.75 198.92 C 216.17 199.02 217.38 198.96 217.75 198.85 C 218.13 198.74 218.17 198.97 218.00 198.25 C 217.83 197.53 217.06 195.05 216.75 194.55 Z M 263.25 285.54 C 262.77 285.54 263.09 285.30 263.04 285.75 C 262.98 286.20 262.91 287.78 262.94 288.25 C 262.98 288.72 262.78 288.53 263.25 288.58 C 263.72 288.63 265.29 288.61 265.75 288.56 C 266.21 288.50 265.97 288.72 266.00 288.25 C 266.03 287.78 266.38 286.20 265.92 285.75 C 265.46 285.30 263.73 285.54 263.25 285.54 Z M 220.25 191.08 C 219.83 191.17 219.62 191.22 219.25 191.58 C 218.88 191.94 218.26 192.89 218.04 193.25 C 217.81 193.61 217.88 193.56 217.92 193.75 C 217.95 193.94 217.53 194.26 218.25 194.39 C 218.97 194.51 221.32 194.52 222.25 194.50 C 223.18 194.48 223.61 194.54 223.81 194.25 C 224.00 193.96 223.68 193.23 223.42 192.75 C 223.16 192.27 222.53 191.63 222.25 191.35 C 221.97 191.07 222.08 191.13 221.75 191.08 C 221.42 191.04 220.67 191.00 220.25 191.08 Z M 278.25 303.98 C 277.75 304.02 277.89 304.09 277.75 304.31 C 277.61 304.52 277.50 304.59 277.42 305.25 C 277.33 305.91 277.23 307.17 277.25 308.25 C 277.27 309.33 277.37 311.12 277.54 311.75 C 277.70 312.38 277.88 312.02 278.25 312.06 C 278.62 312.10 279.42 312.03 279.75 312.00 C 280.08 311.97 279.91 312.18 280.25 311.89 C 280.59 311.59 281.35 310.86 281.81 310.25 C 282.26 309.64 282.73 308.83 283.00 308.25 C 283.27 307.67 283.45 307.25 283.42 306.75 C 283.38 306.25 283.00 305.59 282.81 305.25 C 282.61 304.91 282.59 304.89 282.25 304.69 C 281.91 304.50 281.42 304.18 280.75 304.06 C 280.08 303.94 278.75 303.94 278.25 303.98 Z M 300.75 201.54 C 300.21 201.86 299.44 202.71 299.00 203.25 C 298.56 203.79 298.32 204.25 298.08 204.75 C 297.85 205.25 297.63 205.83 297.58 206.25 C 297.54 206.67 297.53 206.97 297.81 207.25 C 298.08 207.53 298.59 207.72 299.25 207.92 C 299.91 208.11 300.75 208.26 301.75 208.42 C 302.75 208.58 304.46 208.83 305.25 208.89 C 306.04 208.94 306.21 208.86 306.47 208.75 C 306.74 208.64 306.76 208.75 306.85 208.25 C 306.94 207.75 306.99 206.42 307.00 205.75 C 307.01 205.08 307.00 204.75 306.89 204.25 C 306.77 203.75 306.58 203.12 306.31 202.75 C 306.03 202.38 305.68 202.24 305.25 202.04 C 304.82 201.83 304.25 201.64 303.75 201.52 C 303.25 201.39 302.75 201.30 302.25 201.31 C 301.75 201.31 301.29 201.21 300.75 201.54 Z M 287.75 306.08 C 287.36 306.33 286.62 306.97 286.39 307.25 C 286.15 307.53 286.18 307.25 286.35 307.75 C 286.52 308.25 287.18 309.58 287.39 310.25 C 287.60 310.92 287.64 311.40 287.61 311.75 C 287.59 312.10 288.06 311.77 287.25 312.35 C 286.44 312.93 283.67 314.59 282.75 315.25 C 281.83 315.91 282.02 315.90 281.75 316.31 C 281.48 316.73 281.24 317.34 281.11 317.75 C 280.99 318.16 281.01 318.42 281.00 318.75 C 280.99 319.08 280.93 319.47 281.06 319.75 C 281.18 320.03 281.13 320.41 281.75 320.44 C 282.37 320.47 283.67 320.21 284.75 319.94 C 285.83 319.68 287.33 319.19 288.25 318.85 C 289.17 318.51 289.85 318.18 290.25 317.92 C 290.65 317.65 290.53 317.61 290.65 317.25 C 290.77 316.89 290.94 316.42 290.98 315.75 C 291.02 315.08 291.07 314.50 290.89 313.25 C 290.70 312.00 290.13 309.33 289.89 308.25 C 289.65 307.17 289.63 307.17 289.44 306.75 C 289.25 306.33 289.03 305.86 288.75 305.75 C 288.47 305.64 288.14 305.83 287.75 306.08 Z M 283.25 285.61 C 282.25 285.85 279.98 286.49 278.75 287.02 C 277.52 287.54 276.49 288.29 275.89 288.75 C 275.28 289.21 275.45 289.00 275.11 289.75 C 274.78 290.50 274.20 292.50 273.89 293.25 C 273.58 294.00 273.44 294.06 273.25 294.25 C 273.06 294.44 273.00 294.46 272.75 294.42 C 272.50 294.37 272.18 294.24 271.75 293.96 C 271.32 293.69 270.36 293.29 270.15 292.75 C 269.94 292.21 270.48 291.20 270.50 290.75 C 270.52 290.30 270.96 290.17 270.25 290.04 C 269.54 289.90 266.98 289.91 266.25 289.94 C 265.52 289.98 265.93 289.87 265.85 290.25 C 265.77 290.63 265.68 291.80 265.75 292.25 C 265.82 292.70 266.00 292.88 266.25 292.96 C 266.50 293.05 266.83 292.76 267.25 292.75 C 267.67 292.74 268.38 292.72 268.75 292.89 C 269.12 293.05 268.98 292.86 269.44 293.75 C 269.91 294.64 271.00 297.25 271.54 298.25 C 272.07 299.25 272.28 299.38 272.65 299.75 C 273.02 300.13 273.23 300.23 273.75 300.50 C 274.27 300.77 274.92 301.14 275.75 301.39 C 276.58 301.64 278.00 301.90 278.75 302.00 C 279.50 302.10 279.67 302.09 280.25 302.00 C 280.83 301.91 281.67 301.74 282.25 301.46 C 282.83 301.19 283.13 300.97 283.75 300.35 C 284.37 299.73 285.37 298.60 285.98 297.75 C 286.59 296.90 287.06 296.00 287.39 295.25 C 287.71 294.50 287.90 294.08 287.92 293.25 C 287.93 292.42 287.74 291.25 287.48 290.25 C 287.22 289.25 286.65 287.92 286.35 287.25 C 286.05 286.58 285.96 286.53 285.69 286.25 C 285.43 285.97 285.16 285.69 284.75 285.58 C 284.34 285.48 284.25 285.37 283.25 285.61 Z M 268.75 266.61 C 267.58 266.61 266.83 266.92 266.25 267.08 C 265.67 267.25 265.69 267.25 265.25 267.61 C 264.81 267.97 264.03 268.73 263.58 269.25 C 263.14 269.77 263.40 269.17 262.57 270.75 C 261.74 272.33 259.33 277.17 258.61 278.75 C 257.89 280.33 258.31 279.75 258.25 280.25 C 258.19 280.75 258.18 281.33 258.25 281.75 C 258.32 282.17 258.28 282.47 258.69 282.75 C 259.11 283.03 259.82 283.23 260.75 283.42 C 261.68 283.61 262.42 283.76 264.25 283.89 C 266.08 284.01 270.44 284.26 271.75 284.15 C 273.06 284.04 272.11 283.90 272.08 283.25 C 272.06 282.60 271.65 280.83 271.61 280.25 C 271.58 279.67 271.70 279.95 271.89 279.75 C 272.08 279.55 272.19 279.29 272.75 279.04 C 273.31 278.79 274.75 278.37 275.25 278.25 C 275.75 278.13 275.61 278.22 275.75 278.31 C 275.89 278.39 276.04 278.01 276.08 278.75 C 276.13 279.49 275.92 281.95 276.04 282.75 C 276.15 283.55 276.38 283.29 276.75 283.54 C 277.12 283.79 277.67 284.19 278.25 284.25 C 278.83 284.31 279.83 284.00 280.25 283.89 C 280.67 283.77 280.54 283.75 280.75 283.56 C 280.96 283.37 281.34 283.05 281.54 282.75 C 281.73 282.45 281.85 282.25 281.92 281.75 C 281.98 281.25 282.09 281.17 281.92 279.75 C 281.74 278.33 281.26 274.83 280.85 273.25 C 280.44 271.67 279.89 270.95 279.46 270.25 C 279.02 269.55 278.95 269.49 278.25 269.06 C 277.55 268.62 276.08 267.98 275.25 267.65 C 274.42 267.32 274.33 267.26 273.25 267.08 C 272.17 266.91 269.92 266.61 268.75 266.61 Z M 257.75 253.58 C 256.69 253.61 256.71 253.97 256.36 254.25 C 256.01 254.53 255.79 254.75 255.65 255.25 C 255.51 255.75 255.41 256.67 255.50 257.25 C 255.59 257.83 255.71 258.17 256.19 258.75 C 256.68 259.33 258.06 260.39 258.40 260.75 C 258.74 261.11 258.77 260.62 258.25 260.89 C 257.73 261.15 255.92 262.09 255.25 262.35 C 254.58 262.61 254.57 262.77 254.25 262.42 C 253.93 262.07 253.60 260.69 253.35 260.25 C 253.10 259.81 253.23 259.00 252.75 259.75 C 252.27 260.50 250.96 263.79 250.46 264.75 C 249.96 265.71 250.12 265.29 249.75 265.50 C 249.38 265.71 249.33 265.82 248.25 266.00 C 247.17 266.18 244.27 266.35 243.25 266.56 C 242.23 266.77 242.37 267.05 242.15 267.25 C 241.93 267.45 241.95 267.50 241.94 267.75 C 241.94 268.00 241.84 268.17 242.11 268.75 C 242.39 269.33 243.11 270.50 243.58 271.25 C 244.06 272.00 244.45 272.64 244.98 273.25 C 245.51 273.86 246.29 274.56 246.75 274.92 C 247.21 275.27 247.25 275.29 247.75 275.39 C 248.25 275.48 248.83 275.59 249.75 275.50 C 250.67 275.41 251.75 275.29 253.25 274.85 C 254.75 274.41 257.42 273.42 258.75 272.85 C 260.08 272.28 260.67 271.88 261.25 271.44 C 261.83 271.01 262.03 270.70 262.25 270.25 C 262.47 269.80 262.55 269.33 262.58 268.75 C 262.62 268.17 262.72 267.75 262.46 266.75 C 262.21 265.75 261.24 263.47 261.04 262.75 C 260.83 262.03 260.88 262.47 261.25 262.42 C 261.62 262.36 262.25 262.65 263.25 262.42 C 264.25 262.18 266.54 261.19 267.25 261.00 C 267.96 260.81 267.50 260.88 267.50 261.25 C 267.50 261.63 267.27 262.83 267.25 263.25 C 267.23 263.67 267.27 263.63 267.35 263.75 C 267.43 263.88 266.85 263.92 267.75 264.00 C 268.65 264.08 271.67 264.24 272.75 264.25 C 273.83 264.26 273.94 264.12 274.25 264.04 C 274.56 263.95 274.63 264.21 274.58 263.75 C 274.54 263.29 274.32 262.25 273.96 261.25 C 273.61 260.25 272.83 258.51 272.46 257.75 C 272.10 256.99 272.04 256.81 271.75 256.69 C 271.46 256.58 271.42 256.59 270.75 257.04 C 270.08 257.50 268.33 259.03 267.75 259.42 C 267.17 259.80 267.48 259.96 267.25 259.35 C 267.02 258.74 266.60 256.46 266.35 255.75 C 266.10 255.04 266.35 255.36 265.75 255.08 C 265.15 254.81 264.08 254.36 262.75 254.11 C 261.42 253.86 258.81 253.56 257.75 253.58 Z M 234.75 216.61 C 234.56 216.80 234.28 216.73 234.11 217.75 C 233.95 218.77 233.81 220.92 233.75 222.75 C 233.69 224.58 233.68 227.08 233.75 228.75 C 233.82 230.42 234.00 231.75 234.15 232.75 C 234.30 233.75 234.38 234.10 234.65 234.75 C 234.92 235.40 235.40 236.20 235.75 236.65 C 236.10 237.10 236.17 237.16 236.75 237.46 C 237.33 237.77 238.50 238.23 239.25 238.46 C 240.00 238.70 240.83 238.74 241.25 238.88 C 241.67 239.01 241.42 239.19 241.75 239.25 C 242.08 239.31 243.50 239.20 243.25 239.25 C 243.00 239.30 241.07 239.29 240.25 239.54 C 239.43 239.79 239.12 240.05 238.35 240.75 C 237.58 241.45 236.36 242.83 235.65 243.75 C 234.94 244.67 234.44 245.58 234.08 246.25 C 233.73 246.92 233.63 247.17 233.54 247.75 C 233.44 248.33 233.42 249.17 233.54 249.75 C 233.65 250.33 233.27 250.00 234.25 251.25 C 235.23 252.50 238.49 256.08 239.42 257.25 C 240.34 258.42 239.87 257.92 239.81 258.25 C 239.74 258.58 239.48 258.83 239.02 259.25 C 238.56 259.67 237.34 260.42 237.06 260.75 C 236.77 261.08 236.54 260.94 237.32 261.25 C 238.10 261.56 240.93 262.29 241.75 262.58 C 242.57 262.87 242.00 262.91 242.25 262.98 C 242.50 263.05 242.33 263.52 243.25 263.00 C 244.17 262.48 246.67 260.69 247.75 259.89 C 248.83 259.08 249.06 258.84 249.75 258.15 C 250.44 257.46 251.39 256.48 251.92 255.75 C 252.44 255.02 252.72 254.58 252.92 253.75 C 253.11 252.92 253.16 251.92 253.08 250.75 C 253.00 249.58 252.50 247.46 252.44 246.75 C 252.39 246.04 252.37 246.44 252.75 246.46 C 253.13 246.49 254.00 246.91 254.75 246.92 C 255.50 246.92 256.77 246.51 257.25 246.48 C 257.73 246.46 257.69 246.46 257.65 246.75 C 257.61 247.04 257.13 247.75 256.98 248.25 C 256.83 248.75 256.72 249.33 256.75 249.75 C 256.78 250.17 256.90 250.48 257.15 250.75 C 257.40 251.02 256.98 250.96 258.25 251.39 C 259.52 251.81 263.25 252.91 264.75 253.31 C 266.25 253.70 266.75 253.72 267.25 253.75 C 267.75 253.78 267.54 253.75 267.75 253.50 C 267.96 253.25 268.29 252.71 268.48 252.25 C 268.68 251.79 268.88 251.25 268.92 250.75 C 268.95 250.25 268.89 249.70 268.69 249.25 C 268.50 248.80 268.41 248.66 267.75 248.04 C 267.09 247.43 265.75 246.29 264.75 245.56 C 263.75 244.83 262.46 244.03 261.75 243.65 C 261.04 243.27 260.69 243.90 260.46 243.25 C 260.24 242.60 260.67 240.67 260.42 239.75 C 260.17 238.83 259.49 238.36 258.96 237.75 C 258.43 237.14 257.87 236.55 257.25 236.08 C 256.63 235.62 255.75 235.12 255.25 234.94 C 254.75 234.76 254.45 234.95 254.25 235.00 C 254.05 235.05 254.54 233.89 254.04 235.25 C 253.54 236.61 251.86 242.18 251.25 243.18 C 250.64 244.18 250.68 241.78 250.35 241.25 C 250.02 240.72 249.52 240.26 249.25 239.98 C 248.98 239.70 249.33 239.79 248.75 239.58 C 248.17 239.38 245.83 239.01 245.75 238.75 C 245.67 238.49 247.75 238.25 248.25 238.00 C 248.75 237.75 248.64 237.54 248.75 237.25 C 248.86 236.96 248.98 237.25 248.92 236.25 C 248.86 235.25 248.65 232.83 248.39 231.25 C 248.13 229.67 247.89 228.00 247.35 226.75 C 246.81 225.50 246.00 224.69 245.15 223.75 C 244.30 222.81 243.57 222.13 242.25 221.11 C 240.93 220.10 238.42 218.40 237.25 217.65 C 236.08 216.90 235.67 216.79 235.25 216.61 C 234.83 216.44 234.94 216.42 234.75 216.61 Z M 269.25 185.69 C 267.50 185.80 266.50 185.94 265.25 186.15 C 264.00 186.36 262.39 186.80 261.75 186.98 C 261.11 187.17 261.43 187.12 261.39 187.25 C 261.34 187.38 261.25 187.42 261.48 187.75 C 261.71 188.08 262.71 188.88 262.75 189.25 C 262.79 189.62 265.00 189.64 261.75 189.94 C 258.50 190.25 246.83 190.80 243.25 191.08 C 239.67 191.36 241.17 191.36 240.25 191.61 C 239.33 191.87 238.36 192.26 237.75 192.61 C 237.14 192.97 236.80 193.31 236.61 193.75 C 236.43 194.19 236.54 194.85 236.65 195.25 C 236.76 195.65 236.32 195.27 237.25 196.14 C 238.18 197.00 240.42 199.07 242.25 200.44 C 244.08 201.82 246.58 203.63 248.25 204.39 C 249.92 205.15 249.08 204.99 252.25 205.00 C 255.42 205.01 264.64 204.51 267.25 204.46 C 269.86 204.42 267.79 204.62 267.92 204.75 C 268.04 204.88 268.07 204.92 268.00 205.25 C 267.93 205.58 267.56 206.33 267.50 206.75 C 267.44 207.17 267.44 207.46 267.65 207.75 C 267.86 208.04 268.40 208.35 268.75 208.52 C 269.10 208.68 269.17 208.76 269.75 208.75 C 270.33 208.74 271.08 208.69 272.25 208.44 C 273.42 208.19 275.83 207.41 276.75 207.25 C 277.67 207.09 277.38 207.21 277.75 207.46 C 278.12 207.71 278.55 208.07 278.96 208.75 C 279.38 209.43 279.87 210.99 280.25 211.52 C 280.63 212.05 280.80 211.90 281.25 211.94 C 281.70 211.98 283.32 211.28 282.95 211.75 C 282.57 212.22 279.64 214.08 279.00 214.75 C 278.36 215.42 278.91 215.30 279.11 215.75 C 279.32 216.20 279.48 217.00 280.25 217.44 C 281.02 217.89 282.58 218.16 283.75 218.42 C 284.92 218.67 286.17 218.87 287.25 218.96 C 288.33 219.06 289.42 219.09 290.25 219.00 C 291.08 218.91 291.63 218.79 292.25 218.42 C 292.87 218.04 293.53 217.36 293.98 216.75 C 294.43 216.14 294.71 215.42 294.94 214.75 C 295.17 214.08 295.26 214.08 295.35 212.75 C 295.44 211.42 295.57 208.17 295.48 206.75 C 295.40 205.33 295.06 204.78 294.85 204.25 C 294.64 203.72 294.52 203.75 294.25 203.54 C 293.98 203.33 293.83 203.20 293.25 203.00 C 292.67 202.80 291.42 202.58 290.75 202.35 C 290.08 202.12 289.58 201.88 289.25 201.61 C 288.92 201.35 288.88 201.31 288.75 200.75 C 288.63 200.19 288.67 198.82 288.50 198.25 C 288.33 197.68 288.21 197.80 287.75 197.35 C 287.29 196.90 287.42 196.79 285.75 195.56 C 284.08 194.32 279.42 191.19 277.75 189.94 C 276.08 188.70 276.14 188.55 275.75 188.10 C 275.36 187.65 275.35 187.64 275.42 187.25 C 275.48 186.86 276.09 186.04 276.15 185.75 C 276.21 185.46 276.90 185.51 275.75 185.50 C 274.60 185.49 271.00 185.59 269.25 185.69 Z"/></svg>
