<svg xmlns="http://www.w3.org/2000/svg" viewBox="0 0 480 854" role="img" aria-labelledby="title" data-coordinate-system="shadow-loom-stage-480x854"><title id="title">crane wingL — traced from generated original paper-cut art</title><path fill="currentColor" fill-rule="evenodd" clip-rule="evenodd" d="M 131.61 179.48 C 133.32 181.86 135.51 191.46 139.60 197.73 C 143.69 204.01 150.15 211.43 156.14 217.13 C 162.13 222.84 167.74 227.21 175.54 231.96 C 183.33 236.72 196.07 239.76 202.92 245.65 C 209.77 251.55 212.05 261.53 216.61 267.33 C 221.17 273.13 225.36 276.94 230.30 280.45 C 235.25 283.97 242.09 287.49 246.28 288.44 C 250.46 289.39 253.88 285.97 255.40 286.16 C 256.92 286.35 256.35 288.44 255.40 289.58 C 254.45 290.72 249.98 292.05 249.70 293.00 C 249.41 293.95 255.02 292.91 253.69 295.29 C 252.36 297.66 243.42 305.08 241.71 307.27 C 240.00 309.45 242.38 308.60 243.42 308.41 C 244.47 308.22 247.51 305.84 247.99 306.12 C 248.46 306.41 247.99 308.41 246.28 310.12 C 244.56 311.83 240.19 315.16 237.72 316.39 C 235.25 317.63 232.20 317.82 231.44 317.53 C 230.68 317.25 233.06 315.35 233.15 314.68 C 233.25 314.02 233.53 312.78 232.01 313.54 C 230.49 314.30 222.89 318.20 224.03 319.24 C 225.17 320.29 234.49 320.58 238.86 319.82 C 243.23 319.05 249.03 314.59 250.27 314.68 C 251.50 314.78 248.56 318.77 246.28 320.39 C 243.99 322.00 240.19 324.00 236.58 324.38 C 232.96 324.76 231.63 322.29 224.60 322.67 C 217.56 323.05 200.92 324.95 194.36 326.66 C 187.80 328.37 185.52 331.61 185.23 332.94 C 184.95 334.27 193.13 333.41 192.65 334.65 C 192.18 335.88 182.57 339.31 182.38 340.35 C 182.19 341.40 191.51 340.07 191.51 340.92 C 191.51 341.78 185.04 343.59 182.38 345.49 C 179.72 347.39 176.20 351.10 175.54 352.33 C 174.87 353.57 176.11 354.04 178.39 352.90 C 180.67 351.76 183.90 347.58 189.23 345.49 C 194.55 343.39 204.35 343.01 210.34 340.35 C 216.33 337.69 222.51 331.13 225.17 329.51 C 227.83 327.90 226.78 329.42 226.31 330.65 C 225.83 331.89 224.60 334.65 222.32 336.93 C 220.03 339.21 214.33 342.73 212.62 344.35 C 210.91 345.96 209.86 346.53 212.05 346.63 C 214.23 346.72 221.17 346.91 225.74 344.92 C 230.30 342.92 237.05 335.60 239.43 334.65 C 241.81 333.70 238.10 339.97 240.00 339.21 C 241.90 338.45 249.13 330.94 250.84 330.08 C 252.55 329.23 249.51 333.98 250.27 334.08 C 251.03 334.17 254.64 327.71 255.40 330.65 C 256.16 333.60 257.02 347.48 254.83 351.76 C 252.65 356.04 245.23 355.76 242.28 356.33 C 239.33 356.90 236.96 356.42 237.15 355.18 C 237.34 353.95 243.90 349.38 243.42 348.91 C 242.95 348.43 236.48 351.76 234.30 352.33 C 232.11 352.90 231.16 352.90 230.30 352.33 C 229.45 351.76 232.30 349.00 229.16 348.91 C 226.02 348.81 216.14 349.86 211.48 351.76 C 206.82 353.66 203.01 356.90 201.21 360.32 C 199.40 363.74 201.59 371.06 200.64 372.30 C 199.69 373.53 196.55 367.73 195.50 367.73 C 194.46 367.73 197.69 371.54 194.36 372.30 C 191.03 373.06 178.67 373.91 175.54 372.30 C 172.40 370.68 177.44 362.89 175.54 362.60 C 173.64 362.32 168.12 368.97 164.13 370.59 C 160.13 372.20 152.34 373.44 151.58 372.30 C 150.82 371.16 159.85 365.07 159.56 363.74 C 159.28 362.41 150.44 365.26 149.87 364.31 C 149.30 363.36 153.19 359.75 156.14 358.04 C 159.09 356.33 165.65 355.95 167.55 354.04 C 169.45 352.14 168.12 347.29 167.55 346.63 C 166.98 345.96 165.55 349.57 164.13 350.05 C 162.70 350.53 161.28 347.86 158.99 349.48 C 156.71 351.10 152.53 358.13 150.44 359.75 C 148.34 361.36 150.44 357.09 146.44 359.18 C 142.45 361.27 131.14 370.11 126.48 372.30 C 121.82 374.49 116.30 374.58 118.49 372.30 C 120.68 370.02 135.41 362.60 139.60 358.61 C 143.78 354.61 143.12 350.24 143.59 348.34 C 144.07 346.44 143.31 347.01 142.45 347.20 C 141.59 347.39 138.55 350.05 138.46 349.48 C 138.36 348.91 141.50 344.92 141.88 343.78 C 142.26 342.63 142.73 341.21 140.74 342.63 C 138.74 344.06 131.99 350.91 129.90 352.33 C 127.81 353.76 127.90 353.38 128.19 351.19 C 128.47 349.00 129.61 342.44 131.61 339.21 C 133.61 335.98 139.03 333.22 140.17 331.80 C 141.31 330.37 141.12 329.80 138.46 330.65 C 135.79 331.51 125.34 337.60 124.19 336.93 C 123.05 336.26 128.76 329.04 131.61 326.66 C 134.46 324.28 141.12 323.52 141.31 322.67 C 141.50 321.81 131.90 322.57 132.75 321.53 C 133.61 320.48 142.54 317.06 146.44 316.39 C 150.34 315.73 154.24 318.10 156.14 317.53 C 158.04 316.96 158.14 313.45 157.85 312.97 C 157.57 312.49 155.29 314.59 154.43 314.68 C 153.57 314.78 153.10 315.25 152.72 313.54 C 152.34 311.83 153.19 305.65 152.15 304.41 C 151.10 303.18 146.54 307.74 146.44 306.12 C 146.35 304.51 152.81 295.57 151.58 294.71 C 150.34 293.86 140.26 301.75 139.03 300.99 C 137.79 300.23 144.73 291.39 144.16 290.15 C 143.59 288.91 137.60 293.10 135.60 293.57 C 133.61 294.05 131.90 294.52 132.18 293.00 C 132.47 291.48 135.70 286.16 137.32 284.45 C 138.93 282.73 141.02 283.40 141.88 282.73 C 142.73 282.07 144.26 280.36 142.45 280.45 C 140.64 280.55 133.42 283.02 131.04 283.31 C 128.66 283.59 128.57 282.93 128.19 282.16 C 127.81 281.40 130.85 279.41 128.76 278.74 C 126.67 278.08 118.39 278.93 115.64 278.17 C 112.88 277.41 113.83 275.13 112.21 274.18 C 110.60 273.23 107.37 273.13 105.94 272.47 C 104.51 271.80 103.66 271.04 103.66 270.18 C 103.66 269.33 107.18 268.85 105.94 267.33 C 104.70 265.81 98.14 262.77 96.24 261.06 C 94.34 259.35 94.34 258.01 94.53 257.06 C 94.72 256.11 97.95 256.21 97.38 255.35 C 96.81 254.50 93.39 254.21 91.11 251.93 C 88.83 249.65 84.83 243.75 83.69 241.66 C 82.55 239.57 83.22 239.76 84.26 239.38 C 85.31 239.00 90.35 240.52 89.97 239.38 C 89.59 238.24 83.88 234.72 81.98 232.53 C 80.08 230.35 79.03 228.26 78.56 226.26 C 78.08 224.26 77.80 220.84 79.13 220.55 C 80.46 220.27 85.12 224.07 86.54 224.55 C 87.97 225.02 88.54 224.74 87.68 223.41 C 86.83 222.07 83.03 219.70 81.41 216.56 C 79.79 213.42 78.18 206.86 77.99 204.58 C 77.80 202.30 77.04 201.35 80.27 202.87 C 83.50 204.39 95.48 213.04 97.38 213.71 C 99.28 214.37 93.29 209.52 91.68 206.86 C 90.06 204.20 88.45 200.21 87.68 197.73 C 86.92 195.26 86.73 193.46 87.11 192.03 C 87.49 190.60 86.83 186.90 89.97 189.18 C 93.10 191.46 104.42 205.63 105.94 205.72 C 107.46 205.82 100.23 193.36 99.09 189.75 C 97.95 186.14 98.71 185.37 99.09 184.04 C 99.47 182.71 99.47 179.57 101.38 181.76 C 103.28 183.95 107.27 192.98 110.50 197.16 C 113.74 201.35 120.39 208.38 120.77 206.86 C 121.15 205.34 114.12 192.13 112.79 188.04 C 111.45 183.95 112.31 183.66 112.79 182.33 C 113.26 181.00 113.93 177.96 115.64 180.05 C 117.35 182.14 119.73 190.22 123.05 194.88 C 126.38 199.54 134.56 208.57 135.60 208.00 C 136.65 207.43 130.37 195.55 129.33 191.46 C 128.28 187.37 128.95 185.47 129.33 183.47 C 129.71 181.48 129.90 177.10 131.61 179.48 Z M 170.97 239.95 C 168.60 240.14 169.83 241.38 170.97 242.23 C 172.11 243.09 177.53 244.13 177.82 245.08 C 178.10 246.03 171.92 246.89 172.68 247.94 C 173.45 248.98 181.62 250.41 182.38 251.36 C 183.14 252.31 178.01 252.88 177.25 253.64 C 176.49 254.40 175.44 255.26 177.82 255.92 C 180.20 256.59 189.89 256.87 191.51 257.63 C 193.13 258.39 188.47 259.25 187.52 260.49 C 186.57 261.72 185.14 263.91 185.81 265.05 C 186.47 266.19 191.22 266.48 191.51 267.33 C 191.80 268.19 187.90 269.23 187.52 270.18 C 187.14 271.14 187.80 272.37 189.23 273.04 C 190.65 273.70 195.69 273.32 196.07 274.18 C 196.45 275.03 191.99 277.03 191.51 278.17 C 191.03 279.31 190.65 280.45 193.22 281.02 C 195.79 281.59 204.82 282.73 206.91 281.59 C 209.00 280.45 205.49 274.65 205.77 274.18 C 206.06 273.70 207.77 277.98 208.62 278.74 C 209.48 279.50 211.48 279.88 210.91 278.74 C 210.34 277.60 206.44 275.60 205.20 271.90 C 203.97 268.19 205.01 260.68 203.49 256.49 C 201.97 252.31 199.12 249.36 196.07 246.80 C 193.03 244.23 189.42 242.23 185.23 241.09 C 181.05 239.95 173.35 239.76 170.97 239.95 Z M 89.97 215.99 C 84.64 214.28 90.44 219.32 91.68 221.12 C 92.91 222.93 94.72 224.93 97.38 226.83 C 100.04 228.73 102.99 230.82 107.65 232.53 C 112.31 234.24 119.25 236.05 125.34 237.10 C 131.42 238.14 141.50 239.09 144.16 238.81 C 146.82 238.52 144.73 236.62 141.31 235.39 C 137.89 234.15 132.18 234.63 123.62 231.39 C 115.07 228.16 95.29 217.70 89.97 215.99 Z M 89.40 230.82 C 84.45 230.35 90.82 235.01 93.39 237.10 C 95.96 239.19 100.04 241.95 104.80 243.37 C 109.55 244.80 115.07 245.37 121.91 245.65 C 128.76 245.94 142.07 245.65 145.87 245.08 C 149.68 244.51 148.53 243.09 144.73 242.23 C 140.93 241.38 132.28 241.85 123.05 239.95 C 113.83 238.05 94.34 231.30 89.40 230.82 Z M 98.52 246.80 C 89.87 246.61 96.24 247.27 96.24 247.94 C 96.24 248.60 96.24 249.55 98.52 250.79 C 100.81 252.02 105.18 254.69 109.93 255.35 C 114.69 256.02 120.49 255.54 127.05 254.78 C 133.61 254.02 145.78 251.74 149.30 250.79 C 152.81 249.84 156.62 249.74 148.15 249.08 C 139.69 248.41 107.18 246.99 98.52 246.80 Z M 145.87 254.78 C 139.31 255.54 118.20 258.11 111.64 259.35 C 105.08 260.58 106.13 261.25 106.51 262.20 C 106.89 263.15 111.17 264.57 113.93 265.05 C 116.68 265.53 116.97 266.29 123.05 265.05 C 129.14 263.81 145.59 259.06 150.44 257.63 C 155.29 256.21 152.05 256.97 152.15 256.49 C 152.24 256.02 152.05 255.07 151.01 254.78 C 149.96 254.50 152.43 254.02 145.87 254.78 Z M 99.09 205.72 C 95.96 204.30 99.85 210.95 101.95 213.71 C 104.04 216.47 106.22 219.32 111.64 222.27 C 117.06 225.21 129.33 229.59 134.46 231.39 C 139.60 233.20 140.83 233.20 142.45 233.10 C 144.07 233.01 147.77 232.63 144.16 230.82 C 140.55 229.02 128.28 226.45 120.77 222.27 C 113.26 218.08 102.23 207.15 99.09 205.72 Z M 152.15 259.92 C 147.87 260.87 135.22 263.43 129.90 265.62 C 124.57 267.81 119.73 271.90 120.20 273.04 C 120.68 274.18 128.85 273.70 132.75 272.47 C 136.65 271.23 139.79 267.43 143.59 265.62 C 147.39 263.81 153.57 262.58 155.57 261.63 C 157.57 260.68 156.14 260.20 155.57 259.92 C 155.00 259.63 156.43 258.97 152.15 259.92 Z M 208.62 262.77 C 205.30 260.11 208.43 267.24 209.19 269.61 C 209.96 271.99 211.10 274.65 213.19 277.03 C 215.28 279.41 219.08 282.45 221.74 283.88 C 224.41 285.30 231.35 289.11 229.16 285.59 C 226.97 282.07 211.95 265.43 208.62 262.77 Z M 158.42 264.48 C 155.67 265.05 146.82 267.05 143.02 269.04 C 139.22 271.04 136.17 275.13 135.60 276.46 C 135.03 277.79 137.51 277.51 139.60 277.03 C 141.69 276.55 145.68 275.22 148.15 273.61 C 150.63 271.99 152.81 268.38 154.43 267.33 C 156.05 266.29 157.00 267.62 157.85 267.33 C 158.71 267.05 159.47 266.10 159.56 265.62 C 159.66 265.15 161.18 263.91 158.42 264.48 Z M 119.06 210.86 C 115.45 208.95 118.49 212.57 119.63 214.28 C 120.77 215.99 123.05 219.22 125.91 221.12 C 128.76 223.03 134.18 224.93 136.74 225.69 C 139.31 226.45 144.26 228.16 141.31 225.69 C 138.36 223.22 122.67 212.76 119.06 210.86 Z M 196.64 300.42 C 195.22 301.85 191.03 306.79 189.80 309.55 C 188.56 312.30 188.18 316.68 189.23 316.96 C 190.27 317.25 194.17 313.64 196.07 311.26 C 197.98 308.88 200.07 304.32 200.64 302.70 C 201.21 301.09 199.97 301.47 199.50 301.56 C 199.02 301.66 197.98 303.37 197.79 303.27 C 197.60 303.18 198.55 301.47 198.36 300.99 C 198.17 300.51 198.07 298.99 196.64 300.42 Z M 195.50 292.43 C 193.89 293.48 188.85 297.57 186.95 299.85 C 185.04 302.13 184.47 304.51 184.09 306.12 C 183.71 307.74 183.62 309.74 184.66 309.55 C 185.71 309.36 188.37 307.65 190.37 304.98 C 192.37 302.32 195.79 295.67 196.64 293.57 C 197.50 291.48 197.12 291.39 195.50 292.43 Z M 162.99 327.80 C 161.18 327.90 154.81 329.61 154.43 330.65 C 154.05 331.70 158.52 333.60 160.70 334.08 C 162.89 334.55 165.46 334.36 167.55 333.51 C 169.64 332.65 172.49 329.89 173.26 328.94 C 174.02 327.99 173.45 327.61 172.11 327.80 C 170.78 327.99 166.79 330.08 165.27 330.08 C 163.75 330.08 164.79 327.71 162.99 327.80 Z M 133.89 212.00 C 131.14 210.29 133.51 214.37 134.46 215.99 C 135.41 217.61 136.84 219.98 139.60 221.69 C 142.35 223.41 151.96 227.87 151.01 226.26 C 150.06 224.64 136.65 213.71 133.89 212.00 Z M 228.02 300.42 C 226.78 300.99 222.98 304.70 221.74 304.98 C 220.51 305.27 221.17 302.51 220.60 302.13 C 220.03 301.75 219.37 301.37 218.32 302.70 C 217.28 304.03 213.95 308.88 214.33 310.12 C 214.71 311.35 218.13 311.54 220.60 310.12 C 223.08 308.69 227.93 303.18 229.16 301.56 C 230.40 299.94 229.26 299.85 228.02 300.42 Z M 210.91 299.28 C 209.96 299.28 206.91 300.99 205.77 302.70 C 204.63 304.41 203.59 308.50 204.06 309.55 C 204.54 310.59 206.91 309.83 208.62 308.98 C 210.34 308.12 213.19 305.55 214.33 304.41 C 215.47 303.27 215.95 302.42 215.47 302.13 C 214.99 301.85 212.24 303.18 211.48 302.70 C 210.72 302.23 211.86 299.28 210.91 299.28 Z M 206.34 290.15 C 205.11 290.53 202.92 291.86 202.35 293.00 C 201.78 294.14 201.97 296.14 202.92 297.00 C 203.87 297.85 206.06 298.71 208.05 298.14 C 210.05 297.57 214.71 294.33 214.90 293.57 C 215.09 292.81 210.05 294.05 209.19 293.57 C 208.34 293.10 210.24 291.29 209.77 290.72 C 209.29 290.15 207.58 289.77 206.34 290.15 Z M 190.37 287.30 C 188.66 288.53 183.43 293.29 181.81 295.86 C 180.20 298.42 179.63 302.70 180.67 302.70 C 181.72 302.70 186.19 298.23 188.09 295.86 C 189.99 293.48 191.70 289.87 192.08 288.44 C 192.46 287.01 192.08 286.06 190.37 287.30 Z M 156.71 233.10 C 154.81 232.91 153.67 233.58 153.29 234.24 C 152.91 234.91 153.67 236.05 154.43 237.10 C 155.19 238.14 156.14 239.66 157.85 240.52 C 159.56 241.38 164.22 242.71 164.70 242.23 C 165.17 241.76 160.70 238.81 160.70 237.67 C 160.70 236.53 165.36 236.15 164.70 235.39 C 164.03 234.63 158.61 233.29 156.71 233.10 Z M 221.74 291.86 C 220.51 292.15 217.37 293.57 216.61 294.71 C 215.85 295.86 215.56 298.04 217.18 298.71 C 218.80 299.37 224.22 299.09 226.31 298.71 C 228.40 298.33 230.21 297.00 229.73 296.43 C 229.26 295.86 224.41 295.86 223.46 295.29 C 222.51 294.71 224.31 293.57 224.03 293.00 C 223.74 292.43 222.98 291.58 221.74 291.86 Z M 143.59 210.86 C 142.16 210.38 144.45 216.37 146.44 218.84 C 148.44 221.31 154.14 225.21 155.57 225.69 C 157.00 226.16 157.00 224.17 155.00 221.69 C 153.00 219.22 145.02 211.33 143.59 210.86 Z M 187.52 282.16 C 185.90 283.12 180.67 286.73 178.96 289.01 C 177.25 291.29 176.49 295.48 177.25 295.86 C 178.01 296.24 181.62 293.38 183.52 291.29 C 185.43 289.20 187.99 284.83 188.66 283.31 C 189.32 281.78 189.13 281.21 187.52 282.16 Z M 184.09 277.03 C 182.57 277.70 178.39 280.55 176.68 282.16 C 174.97 283.78 174.21 285.59 173.83 286.73 C 173.45 287.87 173.26 289.30 174.40 289.01 C 175.54 288.72 178.77 286.82 180.67 285.02 C 182.57 283.21 185.23 279.50 185.81 278.17 C 186.38 276.84 185.62 276.36 184.09 277.03 Z M 182.38 271.33 C 180.96 271.80 176.87 273.51 174.97 275.32 C 173.06 277.13 170.50 281.50 170.97 282.16 C 171.45 282.83 175.73 280.93 177.82 279.31 C 179.91 277.70 182.76 273.80 183.52 272.47 C 184.28 271.14 183.81 270.85 182.38 271.33 Z M 232.58 303.27 C 230.68 303.94 226.88 306.98 225.74 308.41 C 224.60 309.83 224.98 311.45 225.74 311.83 C 226.50 312.21 228.40 311.92 230.30 310.69 C 232.20 309.45 236.77 305.65 237.15 304.41 C 237.53 303.18 234.49 302.61 232.58 303.27 Z M 165.27 253.07 C 163.94 253.45 161.66 254.50 161.28 255.35 C 160.89 256.21 160.89 257.73 162.99 258.20 C 165.08 258.68 172.97 258.59 173.83 258.20 C 174.68 257.82 168.88 256.78 168.12 255.92 C 167.36 255.07 169.74 253.55 169.26 253.07 C 168.79 252.60 166.60 252.69 165.27 253.07 Z M 158.42 244.51 C 157.09 244.70 156.71 244.89 156.71 245.65 C 156.71 246.41 156.43 248.32 158.42 249.08 C 160.42 249.84 167.84 250.50 168.69 250.22 C 169.55 249.93 164.22 248.32 163.56 247.37 C 162.89 246.41 165.55 244.99 164.70 244.51 C 163.84 244.04 159.75 244.32 158.42 244.51 Z M 180.10 265.62 C 178.77 265.91 175.63 266.95 173.83 268.47 C 172.02 269.99 169.45 273.70 169.26 274.75 C 169.07 275.79 171.26 275.32 172.68 274.75 C 174.11 274.18 176.30 272.66 177.82 271.33 C 179.34 269.99 181.43 267.71 181.81 266.76 C 182.19 265.81 181.43 265.34 180.10 265.62 Z M 208.62 283.88 C 206.91 283.88 207.67 284.83 208.05 285.59 C 208.43 286.35 209.10 287.87 210.91 288.44 C 212.71 289.01 217.66 289.49 218.89 289.01 C 220.13 288.53 220.03 286.44 218.32 285.59 C 216.61 284.73 210.34 283.88 208.62 283.88 Z M 173.83 260.49 C 172.02 261.25 167.17 265.43 167.55 266.19 C 167.93 266.95 174.30 265.81 176.11 265.05 C 177.91 264.29 178.77 262.39 178.39 261.63 C 178.01 260.87 175.63 259.73 173.83 260.49 Z M 225.17 288.44 C 224.03 289.11 228.12 292.24 229.73 293.00 C 231.35 293.76 233.63 293.38 234.87 293.00 C 236.10 292.62 236.86 291.39 237.15 290.72 C 237.43 290.06 238.57 289.39 236.58 289.01 C 234.58 288.63 226.31 287.77 225.17 288.44 Z M 236.58 294.71 C 234.58 294.62 232.58 296.71 232.01 297.57 C 231.44 298.42 231.54 299.47 233.15 299.85 C 234.77 300.23 239.90 300.13 241.71 299.85 C 243.52 299.56 244.85 298.99 243.99 298.14 C 243.14 297.28 238.57 294.81 236.58 294.71 Z M 200.07 282.73 C 198.93 282.83 197.21 283.69 196.64 284.45 C 196.07 285.21 195.31 286.63 196.64 287.30 C 197.98 287.96 203.49 289.01 204.63 288.44 C 205.77 287.87 204.25 284.83 203.49 283.88 C 202.73 282.93 201.21 282.64 200.07 282.73 Z M 162.99 227.97 C 161.28 227.30 165.55 233.01 168.12 234.82 C 170.69 236.62 179.24 239.95 178.39 238.81 C 177.53 237.67 164.70 228.64 162.99 227.97 Z M 186.38 352.33 C 184.09 353.28 174.78 358.13 174.97 358.61 C 175.16 359.08 185.23 356.14 187.52 355.18 C 189.80 354.23 188.85 353.38 188.66 352.90 C 188.47 352.43 188.66 351.38 186.38 352.33 Z M 163.56 336.93 C 162.42 337.02 158.42 340.54 157.28 342.06 C 156.14 343.59 155.57 346.15 156.71 346.06 C 157.85 345.96 162.99 343.01 164.13 341.49 C 165.27 339.97 164.70 336.83 163.56 336.93 Z M 216.61 314.11 C 214.23 315.16 204.25 320.67 203.49 321.53 C 202.73 322.38 209.67 320.29 212.05 319.24 C 214.42 318.20 216.99 316.11 217.75 315.25 C 218.51 314.40 218.99 313.06 216.61 314.11 Z M 254.83 352.90 C 255.88 352.71 256.35 357.94 255.40 359.18 C 254.45 360.41 249.22 361.36 249.13 360.32 C 249.03 359.27 253.79 353.09 254.83 352.90 Z M 196.07 351.19 C 195.03 351.86 192.27 354.71 191.51 356.33 C 190.75 357.94 190.46 361.55 191.51 360.89 C 192.56 360.22 197.02 353.95 197.79 352.33 C 198.55 350.72 197.12 350.53 196.07 351.19 Z M 163.56 308.98 C 163.18 308.31 161.56 311.92 161.28 313.54 C 160.99 315.16 161.47 318.01 161.85 318.67 C 162.23 319.34 163.27 319.15 163.56 317.53 C 163.84 315.92 163.94 309.64 163.56 308.98 Z M 160.13 298.71 C 159.56 298.80 156.71 304.03 156.14 305.55 C 155.57 307.07 156.14 307.93 156.71 307.84 C 157.28 307.74 158.99 306.50 159.56 304.98 C 160.13 303.46 160.70 298.61 160.13 298.71 Z M 148.72 283.88 C 147.96 284.26 145.87 286.25 145.30 287.30 C 144.73 288.34 144.54 290.53 145.30 290.15 C 146.06 289.77 149.30 286.06 149.87 285.02 C 150.44 283.97 149.49 283.50 148.72 283.88 Z"/></svg>
