<svg xmlns="http://www.w3.org/2000/svg" viewBox="0 0 480 854" role="img" aria-labelledby="title" data-coordinate-system="shadow-loom-stage-480x854"><title id="title">deer target — traced from generated original paper-cut art</title><path fill="currentColor" fill-rule="evenodd" clip-rule="evenodd" d="M 230.98 131.12 C 232.64 132.47 237.63 147.64 239.70 149.82 C 241.78 152.00 242.71 146.49 243.44 144.21 C 244.17 141.92 243.65 137.56 244.07 136.11 C 244.48 134.65 245.31 134.97 245.93 135.48 C 246.56 136.00 247.49 137.04 247.80 139.22 C 248.12 141.41 248.64 144.83 247.80 148.57 C 246.97 152.31 243.75 156.78 242.82 161.66 C 241.88 166.54 241.26 175.47 242.20 177.86 C 243.13 180.25 246.56 177.14 248.43 175.99 C 250.30 174.85 252.79 174.33 253.41 171.01 C 254.04 167.68 251.75 159.89 252.17 156.05 C 252.58 152.21 254.56 148.26 255.91 147.95 C 257.26 147.64 259.44 152.21 260.27 154.18 C 261.10 156.15 260.48 158.86 260.89 159.79 C 261.31 160.73 261.83 161.45 262.76 159.79 C 263.70 158.13 265.77 154.49 266.50 149.82 C 267.23 145.14 266.60 134.55 267.12 131.75 C 267.64 128.94 268.79 131.54 269.62 132.99 C 270.45 134.45 271.69 137.15 272.11 140.47 C 272.53 143.79 272.84 148.78 272.11 152.93 C 271.38 157.09 267.64 163.32 267.75 165.40 C 267.85 167.48 270.86 166.13 272.73 165.40 C 274.60 164.67 276.89 164.15 278.97 161.04 C 281.04 157.92 283.85 148.68 285.20 146.70 C 286.55 144.73 287.07 146.60 287.07 149.20 C 287.07 151.79 286.76 158.75 285.20 162.28 C 283.64 165.81 282.70 167.58 277.72 170.38 C 272.73 173.19 259.54 177.14 255.28 179.11 C 251.02 181.08 252.79 180.98 252.17 182.23 C 251.54 183.47 250.40 186.28 251.54 186.59 C 252.69 186.90 256.32 184.41 259.02 184.10 C 261.72 183.78 266.19 184.30 267.75 184.72 C 269.31 185.13 269.62 184.72 268.37 186.59 C 267.12 188.46 263.59 194.17 260.27 195.94 C 256.95 197.70 251.34 195.73 248.43 197.18 C 245.52 198.64 244.58 203.00 242.82 204.66 C 241.05 206.32 240.53 206.64 237.83 207.15 C 235.13 207.67 233.16 208.82 226.62 207.78 C 220.07 206.74 205.95 202.07 198.57 200.92 C 191.20 199.78 186.83 200.51 182.37 200.92 C 177.90 201.34 174.89 202.17 171.77 203.42 C 168.66 204.66 165.23 207.15 163.67 208.40 C 162.11 209.65 162.01 210.17 162.42 210.89 C 162.84 211.62 164.40 213.49 166.16 212.76 C 167.93 212.04 170.73 207.99 173.02 206.53 C 175.30 205.08 176.55 204.45 179.87 204.04 C 183.20 203.62 188.81 203.52 192.96 204.04 C 197.12 204.56 205.01 203.62 204.80 207.15 C 204.59 210.69 194.93 221.59 191.71 225.23 C 188.49 228.86 188.18 228.03 185.48 228.97 C 182.78 229.90 175.41 225.12 175.51 230.84 C 175.62 236.55 183.41 256.29 186.11 263.24 C 188.81 270.20 189.01 269.79 191.71 272.59 C 194.42 275.40 196.80 278.62 202.31 280.07 C 207.81 281.53 218.72 280.38 224.75 281.32 C 230.77 282.25 233.05 284.95 238.46 285.68 C 243.86 286.41 246.66 287.65 257.15 285.68 C 267.64 283.71 290.60 275.92 301.40 273.84 C 312.20 271.76 315.11 272.49 321.97 273.22 C 328.82 273.94 335.16 275.50 342.53 278.20 C 349.91 280.90 359.57 287.24 366.22 289.42 C 372.86 291.60 380.34 290.25 382.42 291.29 C 384.50 292.33 377.75 293.68 378.68 295.65 C 379.62 297.63 386.16 301.05 388.03 303.13 C 389.90 305.21 390.21 307.60 389.90 308.12 C 389.59 308.64 386.99 306.35 386.16 306.25 C 385.33 306.14 384.60 306.77 384.91 307.49 C 385.22 308.22 386.99 308.53 388.03 310.61 C 389.07 312.69 390.73 317.88 391.14 319.96 C 391.56 322.03 391.04 322.66 390.52 323.07 C 390.00 323.49 388.34 321.00 388.03 322.45 C 387.72 323.90 388.76 329.93 388.65 331.80 C 388.55 333.67 388.03 333.46 387.41 333.67 C 386.78 333.88 385.02 331.28 384.91 333.04 C 384.81 334.81 387.30 342.60 386.78 344.26 C 386.26 345.92 384.29 344.78 381.80 343.02 C 379.30 341.25 373.59 337.72 371.82 333.67 C 370.06 329.62 370.89 321.31 371.20 318.71 C 371.51 316.11 372.66 316.95 373.69 318.09 C 374.73 319.23 376.71 325.98 377.43 325.57 C 378.16 325.15 378.78 318.71 378.06 315.59 C 377.33 312.48 373.90 306.97 373.07 306.87 C 372.24 306.77 373.38 313.62 373.07 314.97 C 372.76 316.32 371.93 316.43 371.20 314.97 C 370.47 313.52 369.96 308.74 368.71 306.25 C 367.46 303.75 363.83 297.21 363.72 300.01 C 363.62 302.82 368.09 312.17 368.09 323.07 C 368.09 333.98 363.41 356.31 363.72 365.45 C 364.03 374.59 366.63 374.28 369.96 377.92 C 373.28 381.55 380.65 379.58 383.67 387.26 C 386.68 394.95 385.64 413.34 388.03 424.03 C 390.42 434.73 396.34 446.26 398.00 451.46 C 399.66 456.65 398.73 454.57 398.00 455.20 C 397.27 455.82 394.68 454.78 393.64 455.20 C 392.60 455.61 391.98 455.61 391.77 457.69 C 391.56 459.77 393.01 464.54 392.39 467.66 C 391.77 470.78 391.14 474.72 388.03 476.38 C 384.91 478.05 376.29 477.74 373.69 477.63 C 371.10 477.53 373.69 476.07 372.45 475.76 C 371.20 475.45 365.90 478.05 366.22 475.76 C 366.53 473.48 372.45 463.51 374.32 462.05 C 376.19 460.60 376.40 466.62 377.43 467.04 C 378.47 467.45 378.37 464.75 380.55 464.54 C 382.73 464.34 390.42 465.79 390.52 465.79 C 390.63 465.79 383.67 465.37 381.17 464.54 C 378.68 463.71 375.88 463.40 375.56 460.80 C 375.25 458.21 378.68 452.29 379.30 448.96 C 379.93 445.64 380.03 445.43 379.30 440.86 C 378.58 436.29 377.12 427.67 374.94 421.54 C 372.76 415.41 368.92 408.45 366.22 404.09 C 363.52 399.73 364.76 399.52 358.74 395.37 C 352.71 391.21 334.85 380.51 330.07 379.16 C 325.29 377.81 328.82 384.15 330.07 387.26 C 331.32 390.38 336.20 395.16 337.55 397.86 C 338.90 400.56 340.98 398.38 338.17 403.47 C 335.37 408.56 325.81 418.84 320.72 428.40 C 315.63 437.95 310.75 455.71 307.63 460.80 C 304.52 465.89 304.31 456.65 302.02 458.93 C 299.74 461.22 297.56 471.81 293.92 474.52 C 290.29 477.22 283.64 475.35 280.21 475.14 C 276.78 474.93 272.94 475.66 273.36 473.27 C 273.77 470.88 280.63 462.26 282.70 460.80 C 284.78 459.35 284.89 464.13 285.82 464.54 C 286.76 464.96 286.76 463.19 288.31 463.30 C 289.87 463.40 294.65 465.27 295.17 465.17 C 295.69 465.06 292.57 462.99 291.43 462.67 C 290.29 462.36 289.46 463.92 288.31 463.30 C 287.17 462.67 283.64 461.32 284.57 458.93 C 285.51 456.55 290.39 453.64 293.92 448.96 C 297.45 444.29 302.23 437.95 305.76 430.89 C 309.30 423.83 313.87 412.40 315.11 406.58 C 316.36 400.77 317.29 403.16 313.24 395.99 C 309.19 388.82 299.43 367.84 290.81 363.58 C 282.19 359.32 273.04 370.02 261.52 370.44 C 249.99 370.85 228.59 365.24 221.63 366.08 C 214.67 366.91 219.97 366.08 219.76 375.42 C 219.55 384.77 219.76 412.30 220.38 422.16 C 221.01 432.03 221.53 429.33 223.50 434.63 C 225.47 439.93 230.87 450.31 232.22 453.95 C 233.57 457.58 232.64 455.92 231.60 456.44 C 230.56 456.96 226.93 454.88 225.99 457.07 C 225.06 459.25 226.62 466.21 225.99 469.53 C 225.37 472.85 224.23 475.45 222.25 477.01 C 220.28 478.57 217.89 478.88 214.15 478.88 C 210.41 478.88 200.86 479.60 199.82 477.01 C 198.78 474.41 206.05 465.17 207.92 463.30 C 209.79 461.43 210.62 464.75 211.03 465.79 C 211.45 466.83 210.10 469.43 210.41 469.53 C 210.72 469.63 210.93 467.04 212.90 466.41 C 214.88 465.79 222.36 466.10 222.25 465.79 C 222.15 465.48 214.46 465.17 212.28 464.54 C 210.10 463.92 209.06 464.34 209.16 462.05 C 209.27 459.77 212.38 455.09 212.90 450.83 C 213.42 446.57 213.11 441.80 212.28 436.50 C 211.45 431.20 209.79 423.62 207.92 419.05 C 206.05 414.48 202.62 413.02 201.06 409.08 C 199.51 405.13 199.71 399.21 198.57 395.37 C 197.43 391.52 196.49 385.19 194.21 386.02 C 191.92 386.85 186.63 396.41 184.86 400.35 C 183.09 404.30 184.86 405.96 183.61 409.70 C 182.37 413.44 179.15 417.18 177.38 422.79 C 175.62 428.40 173.85 437.02 173.02 443.35 C 172.19 449.69 172.81 457.69 172.40 460.80 C 171.98 463.92 171.46 462.15 170.53 462.05 C 169.59 461.95 167.72 460.18 166.79 460.18 C 165.85 460.18 165.33 460.49 164.92 462.05 C 164.50 463.61 165.23 467.14 164.29 469.53 C 163.36 471.92 162.32 475.14 159.31 476.38 C 156.30 477.63 148.61 477.22 146.22 477.01 C 143.83 476.80 146.12 475.45 144.97 475.14 C 143.83 474.83 138.85 477.32 139.36 475.14 C 139.88 472.96 146.12 463.51 148.09 462.05 C 150.06 460.60 150.37 466.00 151.21 466.41 C 152.04 466.83 151.52 464.54 153.08 464.54 C 154.63 464.54 159.83 466.52 160.55 466.41 C 161.28 466.31 158.58 464.23 157.44 463.92 C 156.30 463.61 154.84 465.17 153.70 464.54 C 152.56 463.92 149.54 463.40 150.58 460.18 C 151.62 456.96 157.44 450.42 159.93 445.22 C 162.42 440.03 164.60 435.77 165.54 429.02 C 166.47 422.27 164.92 410.74 165.54 404.71 C 166.16 398.69 168.45 397.24 169.28 392.87 C 170.11 388.51 170.42 384.15 170.53 378.54 C 170.63 372.93 170.84 363.69 169.90 359.22 C 168.97 354.75 165.33 351.01 164.92 351.74 C 164.50 352.47 168.24 362.13 167.41 363.58 C 166.58 365.04 162.11 362.02 159.93 360.47 C 157.75 358.91 156.09 357.45 154.32 354.23 C 152.56 351.01 150.48 341.56 149.34 341.15 C 148.19 340.73 149.13 352.26 147.47 351.74 C 145.80 351.22 140.92 342.91 139.36 338.03 C 137.81 333.15 138.64 325.05 138.12 322.45 C 137.60 319.85 136.66 321.20 136.25 322.45 C 135.83 323.70 136.46 329.93 135.63 329.93 C 134.79 329.93 132.30 325.15 131.26 322.45 C 130.22 319.75 129.50 317.78 129.39 313.73 C 129.29 309.67 131.16 300.12 130.64 298.14 C 130.12 296.17 127.21 301.99 126.28 301.88 C 125.34 301.78 125.13 300.12 125.03 297.52 C 124.93 294.92 124.51 290.77 125.65 286.30 C 126.80 281.84 131.05 275.60 131.89 270.72 C 132.72 265.84 132.61 260.44 130.64 257.01 C 128.67 253.58 125.03 251.20 120.04 250.16 C 115.06 249.12 105.09 252.03 100.73 250.78 C 96.36 249.53 95.32 245.59 93.87 242.68 C 92.42 239.77 91.58 235.51 92.00 233.33 C 92.42 231.15 92.00 231.67 96.36 229.59 C 100.73 227.51 113.09 223.98 118.18 220.87 C 123.26 217.75 123.78 213.08 126.90 210.89 C 130.02 208.71 136.25 208.92 136.87 207.78 C 137.49 206.64 132.41 205.70 130.64 204.04 C 128.87 202.38 127.52 201.03 126.28 197.81 C 125.03 194.59 123.47 188.35 123.16 184.72 C 122.85 181.08 122.95 176.41 124.41 175.99 C 125.86 175.58 128.98 180.46 131.89 182.23 C 134.79 183.99 139.16 184.51 141.86 186.59 C 144.56 188.67 146.84 191.89 148.09 194.69 C 149.34 197.49 148.71 202.07 149.34 203.42 C 149.96 204.77 151.41 204.77 151.83 202.79 C 152.24 200.82 153.80 196.14 151.83 191.57 C 149.86 187.00 142.07 179.84 139.99 175.37 C 137.91 170.90 138.33 168.10 139.36 164.78 C 140.40 161.45 145.29 154.39 146.22 155.43 C 147.15 156.47 144.56 167.58 144.97 171.01 C 145.39 174.44 147.67 175.27 148.71 175.99 C 149.75 176.72 149.96 177.86 151.21 175.37 C 152.45 172.88 154.95 166.33 156.19 161.04 C 157.44 155.74 156.92 148.05 158.68 143.59 C 160.45 139.12 165.12 135.48 166.79 134.24 C 168.45 132.99 169.07 134.45 168.66 136.11 C 168.24 137.77 165.02 141.51 164.29 144.21 C 163.57 146.91 162.01 152.10 164.29 152.31 C 166.58 152.52 174.26 148.26 178.00 145.46 C 181.74 142.65 184.34 137.67 186.73 135.48 C 189.12 133.30 190.47 132.78 192.34 132.37 C 194.21 131.95 198.47 131.64 197.95 132.99 C 197.43 134.34 190.99 138.29 189.22 140.47 C 187.46 142.65 185.69 145.35 187.35 146.08 C 189.01 146.81 195.56 146.49 199.19 144.83 C 202.83 143.17 207.30 137.25 209.16 136.11 C 211.03 134.97 211.55 135.69 210.41 137.98 C 209.27 140.26 205.01 147.33 202.31 149.82 C 199.61 152.31 197.43 152.52 194.21 152.93 C 190.99 153.35 185.90 152.00 182.99 152.31 C 180.08 152.62 177.80 153.87 176.76 154.80 C 175.72 155.74 175.62 157.92 176.76 157.92 C 177.90 157.92 181.33 155.32 183.61 154.80 C 185.90 154.29 190.47 152.73 190.47 154.80 C 190.47 156.88 182.78 165.81 183.61 167.27 C 184.44 168.72 193.27 163.84 195.45 163.53 C 197.64 163.22 197.95 163.95 196.70 165.40 C 195.45 166.85 191.92 171.22 187.98 172.25 C 184.03 173.29 176.13 171.11 173.02 171.63 C 169.90 172.15 171.15 174.33 169.28 175.37 C 167.41 176.41 163.57 176.41 161.80 177.86 C 160.03 179.32 158.68 180.98 158.68 184.10 C 158.68 187.21 160.35 195.11 161.80 196.56 C 163.25 198.01 165.85 194.90 167.41 192.82 C 168.97 190.74 168.97 186.69 171.15 184.10 C 173.33 181.50 178.73 178.18 180.50 177.24 C 182.26 176.31 182.47 177.03 181.74 178.49 C 181.02 179.94 177.28 183.58 176.13 185.97 C 174.99 188.35 173.33 191.57 174.89 192.82 C 176.45 194.07 182.78 193.65 185.48 193.44 C 188.18 193.24 189.33 192.61 191.09 191.57 C 192.86 190.54 193.48 191.05 196.08 187.21 C 198.67 183.37 204.70 171.01 206.67 168.52 C 208.65 166.02 208.23 169.45 207.92 172.25 C 207.61 175.06 203.66 183.89 204.80 185.34 C 205.95 186.80 211.97 183.16 214.77 180.98 C 217.58 178.80 220.18 173.29 221.63 172.25 C 223.08 171.22 224.23 172.36 223.50 174.75 C 222.77 177.14 220.38 183.37 217.27 186.59 C 214.15 189.81 205.53 192.61 204.80 194.07 C 204.08 195.52 209.58 195.94 212.90 195.31 C 216.23 194.69 221.73 192.30 224.75 190.33 C 227.76 188.35 229.11 186.90 230.98 183.47 C 232.85 180.04 235.24 174.12 235.96 169.76 C 236.69 165.40 236.38 161.97 235.34 157.30 C 234.30 152.62 230.46 146.08 229.73 141.72 C 229.00 137.35 229.32 129.77 230.98 131.12 Z M 153.08 262.00 C 151.83 262.10 147.15 270.20 145.60 271.35 C 144.04 272.49 145.18 268.23 143.73 268.85 C 142.27 269.48 138.95 272.18 136.87 275.09 C 134.79 277.99 131.99 284.02 131.26 286.30 C 130.54 288.59 131.26 289.00 132.51 288.80 C 133.76 288.59 138.22 284.02 138.74 285.06 C 139.26 286.10 136.14 291.39 135.63 295.03 C 135.11 298.66 134.90 303.44 135.63 306.87 C 136.35 310.30 137.70 317.46 139.99 315.59 C 142.27 313.73 147.78 300.12 149.34 295.65 C 150.89 291.19 150.17 288.90 149.34 288.80 C 148.51 288.69 145.39 294.61 144.35 295.03 C 143.31 295.44 141.65 295.34 143.10 291.29 C 144.56 287.24 151.41 275.60 153.08 270.72 C 154.74 265.84 154.32 261.89 153.08 262.00 Z M 249.05 344.89 C 246.04 345.92 240.22 350.91 236.59 352.36 C 232.95 353.82 226.72 352.05 227.24 353.61 C 227.76 355.17 235.76 360.36 239.70 361.71 C 243.65 363.06 248.43 362.13 250.92 361.71 C 253.41 361.30 254.14 360.78 254.66 359.22 C 255.18 357.66 253.62 354.03 254.04 352.36 C 254.45 350.70 257.05 350.29 257.15 349.25 C 257.26 348.21 256.01 346.86 254.66 346.13 C 253.31 345.41 252.06 343.85 249.05 344.89 Z M 350.01 313.10 C 348.87 314.14 348.87 319.65 347.52 320.58 C 346.17 321.52 343.16 318.61 341.91 318.71 C 340.66 318.81 340.04 319.96 340.04 321.20 C 340.04 322.45 340.77 325.25 341.91 326.19 C 343.05 327.12 346.69 326.19 346.90 326.81 C 347.10 327.44 343.88 328.68 343.16 329.93 C 342.43 331.18 342.01 333.15 342.53 334.29 C 343.05 335.43 344.82 337.30 346.27 336.78 C 347.73 336.26 350.01 331.28 351.26 331.18 C 352.51 331.07 352.71 335.33 353.75 336.16 C 354.79 336.99 356.56 336.78 357.49 336.16 C 358.43 335.54 359.57 333.88 359.36 332.42 C 359.15 330.97 355.93 328.58 356.24 327.44 C 356.56 326.29 360.30 326.60 361.23 325.57 C 362.16 324.53 362.48 322.24 361.85 321.20 C 361.23 320.16 358.74 319.23 357.49 319.33 C 356.24 319.44 354.89 322.66 354.37 321.83 C 353.86 321.00 355.10 315.80 354.37 314.35 C 353.65 312.89 351.15 312.06 350.01 313.10 Z M 249.05 303.13 C 247.91 303.23 246.87 304.48 246.56 305.62 C 246.25 306.77 247.91 309.26 247.18 309.99 C 246.45 310.71 243.34 309.15 242.20 309.99 C 241.05 310.82 239.49 313.83 240.33 314.97 C 241.16 316.11 245.73 317.26 247.18 316.84 C 248.64 316.43 248.22 313.41 249.05 312.48 C 249.88 311.54 251.02 310.71 252.17 311.23 C 253.31 311.75 255.59 314.45 255.91 315.59 C 256.22 316.74 255.59 317.67 254.04 318.09 C 252.48 318.50 248.01 317.05 246.56 318.09 C 245.10 319.13 244.69 323.07 245.31 324.32 C 245.93 325.57 249.05 326.29 250.30 325.57 C 251.54 324.84 251.86 320.27 252.79 319.96 C 253.73 319.65 254.66 323.07 255.91 323.70 C 257.15 324.32 259.33 324.32 260.27 323.70 C 261.20 323.07 261.93 321.41 261.52 319.96 C 261.10 318.50 257.67 316.22 257.78 314.97 C 257.88 313.73 261.41 313.62 262.14 312.48 C 262.87 311.34 262.87 309.05 262.14 308.12 C 261.41 307.18 259.13 306.56 257.78 306.87 C 256.43 307.18 254.76 310.30 254.04 309.99 C 253.31 309.67 254.24 306.14 253.41 305.00 C 252.58 303.86 250.19 303.03 249.05 303.13 Z M 325.71 328.06 C 324.25 328.47 326.12 333.15 325.08 334.29 C 324.04 335.43 320.82 334.40 319.47 334.91 C 318.12 335.43 316.67 336.16 316.98 337.41 C 317.29 338.65 318.75 340.94 321.34 342.39 C 323.94 343.85 329.65 344.47 332.56 346.13 C 335.47 347.79 338.59 354.75 338.79 352.36 C 339.00 349.98 335.99 335.85 333.81 331.80 C 331.63 327.75 327.16 327.64 325.71 328.06 Z M 194.83 356.10 C 192.65 354.86 192.65 362.65 192.34 365.45 C 192.03 368.26 191.20 369.19 192.96 372.93 C 194.73 376.67 200.86 387.89 202.93 387.89 C 205.01 387.89 206.78 378.23 205.43 372.93 C 204.08 367.63 197.01 357.35 194.83 356.10 Z M 292.05 338.65 C 288.83 338.97 286.13 340.42 283.33 342.39 C 280.52 344.37 274.40 349.77 275.23 350.49 C 276.06 351.22 284.68 347.38 288.31 346.76 C 291.95 346.13 293.71 346.13 297.04 346.76 C 300.36 347.38 306.49 350.60 308.26 350.49 C 310.02 350.39 308.57 347.79 307.63 346.13 C 306.70 344.47 305.24 341.77 302.65 340.52 C 300.05 339.28 295.27 338.34 292.05 338.65 Z M 156.19 305.00 C 155.15 306.04 153.08 311.34 151.83 312.48 C 150.58 313.62 149.65 310.92 148.71 311.86 C 147.78 312.79 146.53 315.28 146.22 318.09 C 145.91 320.89 145.91 325.77 146.84 328.68 C 147.78 331.59 149.96 338.34 151.83 335.54 C 153.70 332.73 157.02 316.74 158.06 311.86 C 159.10 306.97 158.37 307.39 158.06 306.25 C 157.75 305.10 157.23 303.96 156.19 305.00 Z M 273.36 311.86 C 272.63 313.62 277.30 321.83 277.72 327.44 C 278.13 333.04 274.91 344.26 275.85 345.51 C 276.78 346.76 281.77 338.55 283.33 334.91 C 284.89 331.28 285.41 326.71 285.20 323.70 C 284.99 320.68 284.05 318.81 282.08 316.84 C 280.11 314.87 274.08 310.09 273.36 311.86 Z M 321.97 351.74 C 319.47 351.95 317.29 353.20 316.98 354.23 C 316.67 355.27 319.47 356.52 320.10 357.97 C 320.72 359.43 319.47 362.02 320.72 362.96 C 321.97 363.89 325.60 363.89 327.58 363.58 C 329.55 363.27 330.17 361.30 332.56 361.09 C 334.95 360.88 342.01 363.69 341.91 362.34 C 341.81 360.99 335.26 354.75 331.94 352.99 C 328.62 351.22 324.46 351.53 321.97 351.74 Z M 154.95 245.17 C 154.22 245.48 153.59 247.77 151.83 248.91 C 150.06 250.05 147.78 251.51 144.35 252.03 C 140.92 252.55 132.61 250.88 131.26 252.03 C 129.91 253.17 135.21 256.39 136.25 258.88 C 137.29 261.37 136.25 266.88 137.49 266.98 C 138.74 267.09 142.27 260.54 143.73 259.51 C 145.18 258.47 144.77 261.69 146.22 260.75 C 147.67 259.82 150.79 256.18 152.45 253.90 C 154.11 251.61 155.78 248.49 156.19 247.04 C 156.61 245.59 155.67 244.86 154.95 245.17 Z M 303.27 300.01 C 300.26 300.12 297.87 301.57 296.42 302.51 C 294.96 303.44 293.51 304.48 294.55 305.62 C 295.58 306.77 298.08 308.74 302.65 309.36 C 307.22 309.99 319.99 310.61 321.97 309.36 C 323.94 308.12 317.60 303.44 314.49 301.88 C 311.37 300.33 306.28 299.91 303.27 300.01 Z M 186.73 208.40 C 184.34 208.61 179.67 210.58 178.63 211.52 C 177.59 212.45 180.91 213.28 180.50 214.01 C 180.08 214.74 176.76 215.05 176.13 215.88 C 175.51 216.71 178.11 217.96 176.76 219.00 C 175.41 220.03 168.03 221.28 168.03 222.11 C 168.03 222.94 175.30 224.19 176.76 223.98 C 178.21 223.77 175.20 221.59 176.76 220.87 C 178.32 220.14 184.24 220.35 186.11 219.62 C 187.98 218.89 188.08 217.33 187.98 216.50 C 187.87 215.67 184.65 215.67 185.48 214.63 C 186.31 213.59 192.75 211.31 192.96 210.27 C 193.17 209.23 189.12 208.19 186.73 208.40 Z M 162.42 279.45 C 159.93 279.66 157.23 281.63 156.19 282.56 C 155.15 283.50 155.15 284.12 156.19 285.06 C 157.23 285.99 159.83 287.65 162.42 288.17 C 165.02 288.69 168.97 287.34 171.77 288.17 C 174.58 289.00 178.52 293.57 179.25 293.16 C 179.98 292.74 177.48 287.65 176.13 285.68 C 174.78 283.71 173.43 282.36 171.15 281.32 C 168.86 280.28 164.92 279.24 162.42 279.45 Z M 209.79 296.90 C 208.96 296.59 207.71 299.81 206.05 300.64 C 204.39 301.47 201.89 299.91 199.82 301.88 C 197.74 303.86 193.38 310.71 193.58 312.48 C 193.79 314.24 198.57 313.31 201.06 312.48 C 203.56 311.65 206.88 309.15 208.54 307.49 C 210.20 305.83 210.83 304.27 211.03 302.51 C 211.24 300.74 210.62 297.21 209.79 296.90 Z M 355.62 345.51 C 354.27 346.13 350.22 348.83 348.77 350.49 C 347.31 352.16 347.00 353.09 346.90 355.48 C 346.79 357.87 347.00 361.82 348.14 364.83 C 349.29 367.84 352.61 372.41 353.75 373.55 C 354.89 374.70 355.21 373.97 355.00 371.68 C 354.79 369.40 352.19 364.00 352.51 359.84 C 352.82 355.69 356.35 349.14 356.87 346.76 C 357.39 344.37 356.97 344.89 355.62 345.51 Z M 200.44 319.96 C 198.15 319.13 197.32 319.85 196.70 321.83 C 196.08 323.80 196.08 329.72 196.70 331.80 C 197.32 333.88 198.15 334.29 200.44 334.29 C 202.73 334.29 208.75 332.53 210.41 331.80 C 212.07 331.07 211.35 330.34 210.41 329.93 C 209.48 329.51 205.63 329.72 204.80 329.31 C 203.97 328.89 204.49 327.85 205.43 327.44 C 206.36 327.02 211.24 328.06 210.41 326.81 C 209.58 325.57 202.73 320.79 200.44 319.96 Z M 166.16 321.83 C 164.40 322.66 160.87 324.63 159.93 327.44 C 159.00 330.24 158.79 337.93 160.55 338.65 C 162.32 339.38 168.45 333.98 170.53 331.80 C 172.60 329.62 172.81 326.81 173.02 325.57 C 173.23 324.32 172.71 324.01 171.77 324.32 C 170.84 324.63 167.62 327.75 167.41 327.44 C 167.20 327.12 170.73 323.38 170.53 322.45 C 170.32 321.52 167.93 321.00 166.16 321.83 Z M 209.16 309.99 C 208.33 310.40 208.85 311.96 207.92 312.48 C 206.98 313.00 204.49 312.48 203.56 313.10 C 202.62 313.73 202.00 314.87 202.31 316.22 C 202.62 317.57 203.76 319.75 205.43 321.20 C 207.09 322.66 211.45 325.36 212.28 324.94 C 213.11 324.53 210.41 319.85 210.41 318.71 C 210.41 317.57 211.66 317.36 212.28 318.09 C 212.90 318.81 213.53 322.24 214.15 323.07 C 214.77 323.90 215.81 324.84 216.02 323.07 C 216.23 321.31 215.92 314.66 215.40 312.48 C 214.88 310.30 213.94 310.40 212.90 309.99 C 211.87 309.57 210.00 309.57 209.16 309.99 Z M 313.24 311.86 C 310.33 312.06 307.32 314.35 305.76 315.59 C 304.21 316.84 301.71 318.81 303.89 319.33 C 306.08 319.85 314.38 317.98 318.85 318.71 C 323.32 319.44 329.97 324.42 330.69 323.70 C 331.42 322.97 326.12 316.32 323.21 314.35 C 320.31 312.37 316.15 311.65 313.24 311.86 Z M 303.27 324.32 C 300.57 324.74 296.42 326.29 293.92 328.06 C 291.43 329.82 286.55 334.19 288.31 334.91 C 290.08 335.64 300.57 333.46 304.52 332.42 C 308.46 331.38 311.06 329.82 312.00 328.68 C 312.93 327.54 311.58 326.29 310.13 325.57 C 308.67 324.84 305.97 323.90 303.27 324.32 Z M 220.38 309.36 C 218.41 309.26 218.31 310.19 217.89 311.86 C 217.47 313.52 217.58 317.46 217.89 319.33 C 218.20 321.20 219.24 323.18 219.76 323.07 C 220.28 322.97 220.38 319.44 221.01 318.71 C 221.63 317.98 223.50 317.88 223.50 318.71 C 223.50 319.54 221.21 322.66 221.01 323.70 C 220.80 324.74 220.69 325.88 222.25 324.94 C 223.81 324.01 228.90 319.75 230.35 318.09 C 231.81 316.43 231.08 315.91 230.98 314.97 C 230.87 314.04 231.50 313.41 229.73 312.48 C 227.97 311.54 222.36 309.47 220.38 309.36 Z M 167.41 298.77 C 165.75 299.81 163.67 309.15 164.29 312.48 C 164.92 315.80 170.21 318.71 171.15 318.71 C 172.08 318.71 169.49 313.31 169.90 312.48 C 170.32 311.65 172.91 314.76 173.64 313.73 C 174.37 312.69 175.30 308.74 174.26 306.25 C 173.23 303.75 169.07 297.73 167.41 298.77 Z M 266.50 323.70 C 265.15 324.22 263.90 331.59 264.01 334.29 C 264.11 336.99 266.40 337.30 267.12 339.90 C 267.85 342.50 267.54 349.66 268.37 349.87 C 269.20 350.08 271.49 344.26 272.11 341.15 C 272.73 338.03 273.04 334.08 272.11 331.18 C 271.18 328.27 267.85 323.18 266.50 323.70 Z M 335.05 300.01 C 333.29 300.22 328.93 304.58 328.20 307.49 C 327.47 310.40 329.97 316.43 330.69 317.46 C 331.42 318.50 331.73 313.83 332.56 313.73 C 333.39 313.62 334.64 317.15 335.68 316.84 C 336.72 316.53 338.27 313.62 338.79 311.86 C 339.31 310.09 339.42 308.22 338.79 306.25 C 338.17 304.27 336.82 299.81 335.05 300.01 Z M 232.22 319.33 C 229.94 320.16 224.54 324.94 224.12 326.19 C 223.71 327.44 228.90 326.29 229.73 326.81 C 230.56 327.33 229.94 328.89 229.11 329.31 C 228.28 329.72 225.47 328.99 224.75 329.31 C 224.02 329.62 222.98 330.66 224.75 331.18 C 226.51 331.69 233.05 332.63 235.34 332.42 C 237.63 332.21 238.04 331.80 238.46 329.93 C 238.87 328.06 238.87 322.97 237.83 321.20 C 236.79 319.44 234.51 318.50 232.22 319.33 Z M 223.50 333.04 C 222.25 333.56 225.06 337.62 224.75 338.03 C 224.43 338.45 222.56 335.85 221.63 335.54 C 220.69 335.23 219.03 334.71 219.14 336.16 C 219.24 337.62 220.69 342.81 222.25 344.26 C 223.81 345.72 226.51 345.51 228.48 344.89 C 230.46 344.26 233.47 342.19 234.09 340.52 C 234.72 338.86 233.99 336.16 232.22 334.91 C 230.46 333.67 224.75 332.53 223.50 333.04 Z M 277.10 354.86 C 272.94 356.21 260.79 362.13 259.65 363.58 C 258.50 365.04 265.88 364.52 270.24 363.58 C 274.60 362.65 283.43 359.32 285.82 357.97 C 288.21 356.62 286.03 356.00 284.57 355.48 C 283.12 354.96 281.25 353.51 277.10 354.86 Z M 186.11 348.63 C 184.96 348.73 182.05 349.35 180.50 350.49 C 178.94 351.64 176.76 354.13 176.76 355.48 C 176.76 356.83 179.98 357.66 180.50 358.60 C 181.02 359.53 179.46 360.05 179.87 361.09 C 180.29 362.13 181.43 365.35 182.99 364.83 C 184.55 364.31 188.18 360.36 189.22 357.97 C 190.26 355.58 190.05 351.22 189.22 350.49 C 188.39 349.77 184.55 353.71 184.24 353.61 C 183.92 353.51 187.04 350.70 187.35 349.87 C 187.66 349.04 187.25 348.52 186.11 348.63 Z M 243.44 332.42 C 242.40 332.84 242.61 334.29 243.44 334.91 C 244.27 335.54 247.91 335.23 248.43 336.16 C 248.95 337.10 245.21 339.59 246.56 340.52 C 247.91 341.46 254.14 340.21 256.53 341.77 C 258.92 343.33 259.85 348.52 260.89 349.87 C 261.93 351.22 262.55 350.91 262.76 349.87 C 262.97 348.83 263.18 346.03 262.14 343.64 C 261.10 341.25 258.61 337.41 256.53 335.54 C 254.45 333.67 251.86 332.94 249.67 332.42 C 247.49 331.90 244.48 332.01 243.44 332.42 Z M 211.03 333.67 C 209.37 333.98 204.39 335.43 202.93 336.78 C 201.48 338.13 202.10 340.63 202.31 341.77 C 202.52 342.91 202.62 343.02 204.18 343.64 C 205.74 344.26 209.68 345.72 211.66 345.51 C 213.63 345.30 215.19 343.74 216.02 342.39 C 216.85 341.04 217.06 338.45 216.64 337.41 C 216.23 336.37 214.46 335.95 213.53 336.16 C 212.59 336.37 211.55 338.55 211.03 338.65 C 210.52 338.76 210.10 337.41 210.41 336.78 C 210.72 336.16 212.80 335.43 212.90 334.91 C 213.01 334.40 212.70 333.36 211.03 333.67 Z M 175.51 338.65 C 173.43 339.17 169.38 340.94 169.28 342.39 C 169.18 343.85 173.02 346.44 174.89 347.38 C 176.76 348.31 178.21 348.31 180.50 348.00 C 182.78 347.69 188.39 346.96 188.60 345.51 C 188.81 344.05 183.92 340.42 181.74 339.28 C 179.56 338.13 177.59 338.13 175.51 338.65 Z M 171.77 156.05 C 170.21 155.64 164.29 161.04 162.42 163.53 C 160.55 166.02 159.00 170.59 160.55 171.01 C 162.11 171.42 169.90 168.52 171.77 166.02 C 173.64 163.53 173.33 156.47 171.77 156.05 Z M 195.45 286.30 C 193.27 286.62 192.13 287.24 190.47 288.80 C 188.81 290.35 184.13 294.82 185.48 295.65 C 186.83 296.48 195.35 294.82 198.57 293.78 C 201.79 292.74 203.97 290.56 204.80 289.42 C 205.63 288.28 205.11 287.45 203.56 286.93 C 202.00 286.41 197.64 285.99 195.45 286.30 Z M 335.05 367.95 C 333.19 368.26 332.04 369.30 332.56 370.44 C 333.08 371.58 335.05 373.97 338.17 374.80 C 341.29 375.63 350.32 376.46 351.26 375.42 C 352.19 374.38 346.48 369.81 343.78 368.57 C 341.08 367.32 336.92 367.63 335.05 367.95 Z M 182.37 269.48 C 181.22 269.58 179.35 273.11 179.25 276.33 C 179.15 279.55 180.60 288.07 181.74 288.80 C 182.89 289.52 185.38 282.88 186.11 280.69 C 186.83 278.51 186.73 277.58 186.11 275.71 C 185.48 273.84 183.51 269.37 182.37 269.48 Z M 359.36 382.90 C 358.01 383.21 361.44 388.62 363.72 391.00 C 366.01 393.39 371.72 397.55 373.07 397.24 C 374.42 396.92 374.11 391.52 371.82 389.13 C 369.54 386.75 360.71 382.59 359.36 382.90 Z M 207.92 349.25 C 205.43 349.14 201.69 349.98 200.44 350.49 C 199.19 351.01 198.88 351.33 200.44 352.36 C 202.00 353.40 206.78 356.31 209.79 356.73 C 212.80 357.14 217.58 355.79 218.51 354.86 C 219.45 353.92 217.16 352.05 215.40 351.12 C 213.63 350.18 210.41 349.35 207.92 349.25 Z M 181.74 306.25 C 180.60 305.52 177.80 308.22 176.76 309.36 C 175.72 310.51 175.30 310.82 175.51 313.10 C 175.72 315.39 176.65 322.97 178.00 323.07 C 179.35 323.18 182.99 316.53 183.61 313.73 C 184.24 310.92 182.89 306.97 181.74 306.25 Z M 187.98 319.96 C 186.94 319.85 185.38 323.18 184.86 324.94 C 184.34 326.71 184.55 328.79 184.86 330.55 C 185.17 332.32 185.59 334.19 186.73 335.54 C 187.87 336.89 190.99 340.32 191.71 338.65 C 192.44 336.99 191.71 328.68 191.09 325.57 C 190.47 322.45 189.01 320.06 187.98 319.96 Z M 163.67 265.11 C 162.63 265.84 163.67 270.93 165.54 273.22 C 167.41 275.50 173.85 279.55 174.89 278.82 C 175.93 278.10 173.64 271.14 171.77 268.85 C 169.90 266.57 164.71 264.39 163.67 265.11 Z M 210.41 384.77 C 209.27 385.71 207.09 391.63 206.67 394.74 C 206.26 397.86 206.78 403.36 207.92 403.47 C 209.06 403.57 212.59 397.76 213.53 395.37 C 214.46 392.98 214.05 390.90 213.53 389.13 C 213.01 387.37 211.55 383.84 210.41 384.77 Z M 166.16 250.16 C 165.23 250.99 165.44 256.91 166.79 259.51 C 168.14 262.10 172.91 265.53 174.26 265.74 C 175.62 265.95 175.20 262.62 174.89 260.75 C 174.58 258.88 173.85 256.29 172.40 254.52 C 170.94 252.75 167.10 249.33 166.16 250.16 Z M 234.72 194.07 C 232.12 194.59 225.58 199.05 225.37 200.30 C 225.16 201.55 231.29 201.65 233.47 201.55 C 235.65 201.44 237.21 200.40 238.46 199.68 C 239.70 198.95 241.57 198.12 240.95 197.18 C 240.33 196.25 237.31 193.55 234.72 194.07 Z M 199.82 354.86 C 198.26 354.86 199.82 359.01 201.69 361.09 C 203.56 363.17 209.48 367.32 211.03 367.32 C 212.59 367.32 212.90 363.17 211.03 361.09 C 209.16 359.01 201.37 354.86 199.82 354.86 Z M 378.68 415.31 C 378.16 416.04 380.03 426.53 381.17 430.27 C 382.32 434.01 385.02 438.47 385.54 437.75 C 386.05 437.02 385.43 429.64 384.29 425.90 C 383.15 422.16 379.20 414.58 378.68 415.31 Z M 315.74 425.90 C 314.07 427.67 308.88 434.42 307.01 437.75 C 305.14 441.07 303.69 445.74 304.52 445.85 C 305.35 445.95 309.92 441.48 312.00 438.37 C 314.07 435.25 316.36 429.23 316.98 427.15 C 317.60 425.07 317.40 424.14 315.74 425.90 Z M 176.76 384.77 C 175.72 385.08 174.47 390.80 174.89 393.50 C 175.30 396.20 178.21 401.29 179.25 400.98 C 180.29 400.66 181.54 394.33 181.12 391.63 C 180.70 388.93 177.80 384.46 176.76 384.77 Z M 300.15 285.68 C 298.49 285.99 296.62 287.24 295.79 288.17 C 294.96 289.11 294.13 290.56 295.17 291.29 C 296.21 292.02 299.95 292.85 302.02 292.54 C 304.10 292.22 307.01 290.46 307.63 289.42 C 308.26 288.38 307.01 286.93 305.76 286.30 C 304.52 285.68 301.82 285.37 300.15 285.68 Z M 135.63 217.75 C 133.76 218.37 131.78 220.03 130.64 221.49 C 129.50 222.94 128.04 226.47 128.77 226.47 C 129.50 226.47 131.78 222.22 135.00 221.49 C 138.22 220.76 146.95 222.74 148.09 222.11 C 149.23 221.49 143.93 218.48 141.86 217.75 C 139.78 217.02 137.49 217.13 135.63 217.75 Z M 280.21 296.27 C 278.13 296.79 274.50 300.12 273.98 301.26 C 273.46 302.40 275.23 303.13 277.10 303.13 C 278.97 303.13 283.64 302.09 285.20 301.26 C 286.76 300.43 287.27 298.98 286.44 298.14 C 285.61 297.31 282.29 295.76 280.21 296.27 Z M 261.52 291.29 C 259.65 291.81 257.15 294.09 256.53 295.03 C 255.91 295.96 256.74 296.38 257.78 296.90 C 258.81 297.42 260.89 298.46 262.76 298.14 C 264.63 297.83 268.16 296.07 268.99 295.03 C 269.82 293.99 268.99 292.54 267.75 291.91 C 266.50 291.29 263.38 290.77 261.52 291.29 Z M 143.10 225.85 C 141.55 226.47 139.26 230.63 137.49 230.84 C 135.73 231.04 133.86 227.20 132.51 227.10 C 131.16 226.99 128.25 229.18 129.39 230.21 C 130.54 231.25 136.46 233.85 139.36 233.33 C 142.27 232.81 146.22 228.34 146.84 227.10 C 147.47 225.85 144.66 225.23 143.10 225.85 Z M 226.62 299.39 C 225.26 299.60 223.60 300.33 223.50 301.26 C 223.40 302.20 224.12 304.38 225.99 305.00 C 227.86 305.62 233.78 305.83 234.72 305.00 C 235.65 304.17 232.95 300.95 231.60 300.01 C 230.25 299.08 227.97 299.18 226.62 299.39 Z M 320.72 391.63 C 319.79 391.94 321.24 399.21 321.97 401.60 C 322.69 403.99 324.15 406.27 325.08 405.96 C 326.02 405.65 328.30 402.12 327.58 399.73 C 326.85 397.34 321.66 391.32 320.72 391.63 Z M 103.22 240.81 C 101.56 241.22 99.58 242.47 99.48 243.30 C 99.37 244.13 100.31 245.69 102.59 245.79 C 104.88 245.90 112.05 244.76 113.19 243.92 C 114.33 243.09 111.11 241.33 109.45 240.81 C 107.79 240.29 104.88 240.39 103.22 240.81 Z M 313.24 278.82 C 311.58 279.14 309.92 280.59 309.50 281.32 C 309.09 282.04 308.67 282.88 310.75 283.19 C 312.83 283.50 320.51 283.81 321.97 283.19 C 323.42 282.56 320.93 280.18 319.47 279.45 C 318.02 278.72 314.90 278.51 313.24 278.82 Z M 284.57 283.81 C 282.60 284.43 277.72 287.97 278.34 288.80 C 278.97 289.63 286.34 289.42 288.31 288.80 C 290.29 288.17 290.81 285.89 290.18 285.06 C 289.56 284.23 286.55 283.19 284.57 283.81 Z M 170.53 426.53 C 169.90 426.32 167.51 433.80 166.79 437.12 C 166.06 440.45 165.54 446.26 166.16 446.47 C 166.79 446.68 169.80 441.69 170.53 438.37 C 171.25 435.04 171.15 426.74 170.53 426.53 Z M 345.65 296.27 C 344.51 296.69 344.40 299.91 345.65 301.26 C 346.90 302.61 351.99 304.79 353.13 304.38 C 354.27 303.96 353.75 300.12 352.51 298.77 C 351.26 297.42 346.79 295.86 345.65 296.27 Z M 332.56 285.06 C 331.32 285.37 331.21 286.72 331.32 287.55 C 331.42 288.38 331.42 289.52 333.19 290.04 C 334.95 290.56 340.98 291.39 341.91 290.67 C 342.85 289.94 340.35 286.62 338.79 285.68 C 337.24 284.75 333.81 284.75 332.56 285.06 Z M 164.92 230.84 C 163.98 231.04 163.98 236.13 164.92 238.32 C 165.85 240.50 169.59 244.13 170.53 243.92 C 171.46 243.72 171.46 239.25 170.53 237.07 C 169.59 234.89 165.85 230.63 164.92 230.84 Z M 217.89 288.17 C 216.64 288.59 215.60 289.73 216.02 290.67 C 216.44 291.60 218.51 293.47 220.38 293.78 C 222.25 294.09 226.72 293.47 227.24 292.54 C 227.76 291.60 225.06 288.90 223.50 288.17 C 221.94 287.45 219.14 287.76 217.89 288.17 Z M 321.34 290.04 C 319.99 290.15 317.81 290.98 317.60 291.91 C 317.40 292.85 318.44 295.13 320.10 295.65 C 321.76 296.17 326.64 295.76 327.58 295.03 C 328.51 294.30 326.75 292.12 325.71 291.29 C 324.67 290.46 322.69 289.94 321.34 290.04 Z M 212.28 405.96 C 211.55 406.58 210.72 411.78 211.03 414.06 C 211.35 416.35 213.42 420.30 214.15 419.67 C 214.88 419.05 215.71 412.61 215.40 410.32 C 215.09 408.04 213.01 405.34 212.28 405.96 Z M 237.83 293.16 C 236.59 293.57 235.65 294.82 235.96 295.65 C 236.27 296.48 238.04 297.94 239.70 298.14 C 241.36 298.35 245.31 297.73 245.93 296.90 C 246.56 296.07 244.79 293.78 243.44 293.16 C 242.09 292.54 239.08 292.74 237.83 293.16 Z M 246.56 185.34 C 245.10 185.97 239.91 188.98 239.08 190.33 C 238.25 191.68 240.53 192.92 241.57 193.44 C 242.61 193.96 244.27 194.59 245.31 193.44 C 246.35 192.30 247.60 187.94 247.80 186.59 C 248.01 185.24 248.01 184.72 246.56 185.34 Z M 349.39 322.45 C 350.64 322.03 353.75 323.18 354.37 324.32 C 355.00 325.46 354.37 328.89 353.13 329.31 C 351.88 329.72 347.52 327.96 346.90 326.81 C 346.27 325.67 348.14 322.87 349.39 322.45 Z M 346.90 340.52 C 346.07 340.21 343.78 340.63 343.16 342.39 C 342.53 344.16 342.33 350.81 343.16 351.12 C 343.99 351.43 347.52 346.03 348.14 344.26 C 348.77 342.50 347.73 340.84 346.90 340.52 Z M 189.22 299.39 C 187.77 299.70 184.34 301.57 184.86 302.51 C 185.38 303.44 190.88 305.31 192.34 305.00 C 193.79 304.69 194.10 301.57 193.58 300.64 C 193.07 299.70 190.68 299.08 189.22 299.39 Z M 131.26 187.84 C 130.33 187.73 131.89 192.41 133.13 193.44 C 134.38 194.48 139.05 195.00 138.74 194.07 C 138.43 193.13 132.20 187.94 131.26 187.84 Z M 302.02 361.09 C 300.88 361.30 300.67 362.75 302.65 363.58 C 304.62 364.41 312.72 366.28 313.87 366.08 C 315.01 365.87 311.48 363.17 309.50 362.34 C 307.53 361.51 303.17 360.88 302.02 361.09 Z M 255.91 189.08 C 254.45 189.70 250.61 192.92 250.92 193.44 C 251.23 193.96 256.32 192.82 257.78 192.20 C 259.23 191.57 259.96 190.22 259.65 189.70 C 259.33 189.19 257.36 188.46 255.91 189.08 Z M 134.38 196.56 C 133.44 196.56 133.44 198.64 134.38 199.68 C 135.31 200.71 139.05 202.79 139.99 202.79 C 140.92 202.79 140.92 200.71 139.99 199.68 C 139.05 198.64 135.31 196.56 134.38 196.56 Z M 101.97 232.71 C 101.45 233.02 102.70 234.47 101.97 235.20 C 101.24 235.93 98.23 236.45 97.61 237.07 C 96.99 237.69 97.09 239.15 98.23 238.94 C 99.37 238.73 103.32 236.76 104.46 235.82 C 105.61 234.89 105.50 233.85 105.09 233.33 C 104.67 232.81 102.49 232.40 101.97 232.71 Z M 216.02 326.81 C 215.19 327.12 214.25 329.20 214.77 329.93 C 215.29 330.66 218.31 331.49 219.14 331.18 C 219.97 330.86 220.28 328.79 219.76 328.06 C 219.24 327.33 216.85 326.50 216.02 326.81 Z M 191.71 341.77 C 191.82 342.19 194.83 345.61 196.08 346.13 C 197.32 346.65 198.99 345.51 199.19 344.89 C 199.40 344.26 197.95 342.60 197.32 342.39 C 196.70 342.19 196.39 343.74 195.45 343.64 C 194.52 343.54 191.61 341.35 191.71 341.77 Z M 179.25 328.06 C 178.84 327.44 181.02 330.86 181.12 331.80 C 181.22 332.73 179.46 333.04 179.87 333.67 C 180.29 334.29 183.72 336.47 183.61 335.54 C 183.51 334.60 179.67 328.68 179.25 328.06 Z M 180.50 159.79 C 179.56 160.31 176.97 163.95 177.38 164.15 C 177.80 164.36 182.47 161.76 182.99 161.04 C 183.51 160.31 181.43 159.27 180.50 159.79 Z M 255.91 157.92 C 255.70 158.75 256.22 163.43 256.53 163.53 C 256.84 163.63 257.88 159.48 257.78 158.54 C 257.67 157.61 256.11 157.09 255.91 157.92 Z"/></svg>
