<svg xmlns="http://www.w3.org/2000/svg" viewBox="0 0 480 854" role="img" aria-labelledby="title" data-coordinate-system="shadow-loom-stage-480x854">
  <title id="title">Tree — CrownTop</title>
  <path fill="currentColor" fill-rule="evenodd" clip-rule="evenodd" d="M 180 284.7 L 174 265.7 L 182 244.7 L 198 228.7 L 217 222.7 L 236 226.7 L 252 235.7 L 266 230.7 L 284 238.7 L 298 252.7 L 302 270.7 L 293 287.7 L 278 296.7 L 261 293.7 L 245 301.7 L 226 300.7 L 209 295.7 L 192 299.7 Z M 210 254.7 L 218 245.7 L 229 247.7 L 234 255.7 L 227 262.7 L 215 261.7 Z M 259 255.7 L 267 248.7 L 277 252.7 L 280 260.7 L 272 266.7 L 262 264.7 Z"/>
</svg>
